<?xml version="1.0" encoding="utf-8"?>
<!-- Generator: Adobe Illustrator 17.0.0, SVG Export Plug-In . SVG Version: 6.00 Build 0)  -->
<!DOCTYPE svg PUBLIC "-//W3C//DTD SVG 1.1//EN" "http://www.w3.org/Graphics/SVG/1.1/DTD/svg11.dtd">
<svg version="1.1" id="Layer_1" xmlns="http://www.w3.org/2000/svg" xmlns:xlink="http://www.w3.org/1999/xlink" x="0px" y="0px"
	 width="15px" height="13px" viewBox="0 0 15 13" enable-background="new 0 0 15 13" xml:space="preserve">
<g>
	<path fill="#CAD4D8" d="M7.532,13h7.467c0,0,0.021-0.327-0.099-0.839c-0.321-1.371-2.547-1.852-3.208-2.17
		c-0.609-0.293-2.047-0.788-2.266-0.926L9.37,8.071c0,0,0.362-0.477,0.466-0.895C9.94,6.759,9.987,6.443,9.987,6.443
		s0.283,0.11,0.387-0.168c0.104-0.278,0.472-1.411,0.406-1.739s-0.236-0.238-0.236-0.238s0.217-1.524,0.161-1.822
		C10.647,2.178,10.906,0.002,7.541,0C4.144,0.002,4.429,2.176,4.372,2.473C4.316,2.771,4.532,4.297,4.532,4.297
		s-0.17-0.089-0.236,0.239s0.302,1.461,0.406,1.739c0.104,0.278,0.387,0.169,0.387,0.169S5.135,6.762,5.239,7.18
		c0.104,0.417,0.465,0.968,0.465,0.968L5.65,9.199H5.648c0,0-1.635,0.568-2.296,0.886c-0.66,0.318-2.887,0.739-3.208,2.111
		C0.023,12.708,0,13,0,13H7.532z"/>
</g>
</svg>
