<?xml version="1.0" encoding="utf-8"?>
<!-- Generator: Adobe Illustrator 17.0.0, SVG Export Plug-In . SVG Version: 6.00 Build 0)  -->
<!DOCTYPE svg PUBLIC "-//W3C//DTD SVG 1.1//EN" "http://www.w3.org/Graphics/SVG/1.1/DTD/svg11.dtd">
<svg version="1.1" id="Layer_1" xmlns="http://www.w3.org/2000/svg" xmlns:xlink="http://www.w3.org/1999/xlink" x="0px" y="0px"
	 width="63.415px" height="43.584px" viewBox="0 0 63.415 43.584" enable-background="new 0 0 63.415 43.584" xml:space="preserve">
<g>
	<path fill="#44A3CE" d="M29.366,34.908c-2.352,0-4.254,1.917-4.254,4.268c0,2.353,1.901,4.259,4.254,4.259
		c2.352,0,4.265-1.906,4.265-4.259C33.631,36.825,31.718,34.908,29.366,34.908"/>
	<path fill="#44A3CE" d="M51.943,35.011c-2.37,0-4.281,1.927-4.281,4.291c0,2.366,1.911,4.282,4.281,4.282
		c2.365,0,4.284-1.916,4.284-4.282C56.227,36.938,54.308,35.011,51.943,35.011"/>
	<path fill="#44A3CE" d="M61.96,32.216H16.932c-0.8,0-1.455-0.655-1.455-1.455c0-0.8,0.655-1.455,1.455-1.455H61.96
		c0.8,0,1.455,0.655,1.455,1.455C63.415,31.561,62.76,32.216,61.96,32.216"/>
	<path fill="#44A3CE" d="M10.683,2.91H1.455C0.655,2.91,0,2.255,0,1.455S0.655,0,1.455,0h9.228c0.8,0,1.455,0.655,1.455,1.455
		S11.483,2.91,10.683,2.91"/>
	<path fill="#44A3CE" d="M15.562,31.053L9.555,1.747C9.394,0.963,9.904,0.19,10.688,0.029c0.784-0.16,1.557,0.349,1.717,1.133
		l6.008,29.307c0.16,0.784-0.35,1.556-1.134,1.717C16.496,32.347,15.723,31.837,15.562,31.053"/>
	<path fill="#44A3CE" d="M40.977,26.119h-17.75c-1.1,0-2-0.9-2-2V12.244c0-1.1,0.9-2,2-2h17.75c1.1,0,2,0.9,2,2v11.875
		C42.977,25.219,42.077,26.119,40.977,26.119"/>
	<path fill="#44A3CE" d="M58.507,26.119h-11c-1.1,0-2-0.9-2-2V3.875c0-1.1,0.9-2,2-2h11c1.1,0,2,0.9,2,2v20.244
		C60.507,25.219,59.607,26.119,58.507,26.119"/>
	<path fill="#44A3CE" d="M40.977,7.937h-17.75c-1.1,0-2-0.9-2-2v-2.25c0-1.1,0.9-2,2-2h17.75c1.1,0,2,0.9,2,2v2.25
		C42.977,7.037,42.077,7.937,40.977,7.937"/>
</g>
</svg>
