<?xml version="1.0" encoding="utf-8"?>
<!-- Generator: Adobe Illustrator 17.0.0, SVG Export Plug-In . SVG Version: 6.00 Build 0)  -->
<!DOCTYPE svg PUBLIC "-//W3C//DTD SVG 1.1//EN" "http://www.w3.org/Graphics/SVG/1.1/DTD/svg11.dtd">
<svg version="1.1" id="Layer_1" xmlns="http://www.w3.org/2000/svg" xmlns:xlink="http://www.w3.org/1999/xlink" x="0px" y="0px"
	 width="18px" height="18px" viewBox="0 0 18 18" enable-background="new 0 0 18 18" xml:space="preserve">
<path fill="#D8E2E6" d="M12.375,0c0.779,0,1.51,0.148,2.193,0.444c0.682,0.296,1.279,0.696,1.788,1.2
	c0.504,0.51,0.904,1.106,1.2,1.789C17.852,4.115,18,4.846,18,5.625c0,0.779-0.148,1.51-0.444,2.193
	c-0.296,0.683-0.696,1.279-1.2,1.789c-0.51,0.504-1.106,0.904-1.788,1.2c-0.683,0.296-1.414,0.444-2.193,0.444
	c-0.17,0-0.337-0.007-0.501-0.022c-0.164-0.015-0.325-0.037-0.483-0.066c-0.158-0.029-0.315-0.064-0.47-0.105
	c-0.155-0.041-0.309-0.088-0.461-0.141L9,12.375H6.75v2.25H4.5v2.25H2.25V18H1.125c-0.158,0-0.305-0.029-0.44-0.088
	c-0.135-0.059-0.255-0.138-0.36-0.237c-0.1-0.105-0.179-0.226-0.237-0.36C0.029,17.18,0,17.033,0,16.875V13.5l6.847-6.847
	c-0.018-0.082-0.032-0.165-0.044-0.25C6.791,6.318,6.782,6.232,6.776,6.144C6.765,6.062,6.757,5.977,6.754,5.889
	C6.751,5.801,6.75,5.713,6.75,5.625c0-0.779,0.148-1.51,0.444-2.193C7.49,2.75,7.89,2.153,8.394,1.644
	c0.51-0.504,1.106-0.904,1.788-1.2C10.865,0.148,11.596,0,12.375,0L12.375,0z M14.062,5.625c0.234,0,0.453-0.044,0.655-0.132
	c0.202-0.088,0.382-0.208,0.54-0.36c0.152-0.152,0.273-0.331,0.36-0.536c0.088-0.205,0.132-0.425,0.132-0.659
	c0-0.234-0.044-0.453-0.132-0.655C15.53,3.081,15.41,2.9,15.258,2.742c-0.158-0.152-0.338-0.272-0.54-0.36
	c-0.202-0.088-0.42-0.132-0.655-0.132c-0.234,0-0.454,0.044-0.659,0.132c-0.205,0.088-0.384,0.208-0.536,0.36
	c-0.152,0.158-0.273,0.338-0.36,0.541c-0.088,0.202-0.132,0.421-0.132,0.655c0,0.234,0.044,0.454,0.132,0.659
	c0.088,0.205,0.208,0.384,0.36,0.536c0.152,0.152,0.331,0.273,0.536,0.36C13.608,5.581,13.828,5.625,14.062,5.625L14.062,5.625z"/>
</svg>
