<?xml version="1.0" encoding="utf-8"?>
<!-- Generator: Adobe Illustrator 17.0.0, SVG Export Plug-In . SVG Version: 6.00 Build 0)  -->
<!DOCTYPE svg PUBLIC "-//W3C//DTD SVG 1.1//EN" "http://www.w3.org/Graphics/SVG/1.1/DTD/svg11.dtd">
<svg version="1.1" id="Layer_1" xmlns="http://www.w3.org/2000/svg" xmlns:xlink="http://www.w3.org/1999/xlink" x="0px" y="0px"
	 width="19px" height="15.438px" viewBox="0 0 19 15.438" enable-background="new 0 0 19 15.438" xml:space="preserve">
<path fill="#D8E2E6" d="M17.219,0c0.247,0,0.479,0.046,0.696,0.139c0.216,0.093,0.405,0.22,0.566,0.38
	c0.161,0.167,0.288,0.357,0.38,0.571C18.954,1.304,19,1.534,19,1.781v11.875c0,0.247-0.046,0.478-0.139,0.691
	c-0.093,0.213-0.22,0.404-0.38,0.571c-0.167,0.161-0.357,0.288-0.571,0.38c-0.213,0.093-0.444,0.139-0.691,0.139H1.781
	c-0.247,0-0.479-0.046-0.696-0.139c-0.216-0.093-0.405-0.219-0.566-0.38c-0.161-0.167-0.288-0.357-0.38-0.571
	C0.046,14.134,0,13.904,0,13.656V1.781c0-0.247,0.046-0.479,0.139-0.696C0.232,0.869,0.359,0.68,0.519,0.52
	c0.167-0.161,0.357-0.288,0.571-0.38S1.534,0,1.781,0H17.219L17.219,0z M7.394,7.839L2.375,2.44v9.314L7.394,7.839L7.394,7.839z
	 M3.275,2.375L9.5,7.051l6.225-4.676H3.275L3.275,2.375z M7.598,8.043l-3.915,5.019h11.634l-3.915-5.019L9.5,10.094L7.598,8.043
	L7.598,8.043z M11.606,7.839l5.019,3.915V2.44L11.606,7.839L11.606,7.839z"/>
</svg>
