<?xml version="1.0" encoding="utf-8"?>
<!-- Generator: Adobe Illustrator 17.0.0, SVG Export Plug-In . SVG Version: 6.00 Build 0)  -->
<!DOCTYPE svg PUBLIC "-//W3C//DTD SVG 1.1//EN" "http://www.w3.org/Graphics/SVG/1.1/DTD/svg11.dtd">
<svg version="1.1" id="Layer_1" xmlns="http://www.w3.org/2000/svg" xmlns:xlink="http://www.w3.org/1999/xlink" x="0px" y="0px"
	 width="17.5px" height="16.25px" viewBox="0 0 17.5 16.25" enable-background="new 0 0 17.5 16.25" xml:space="preserve">
<path fill="#D8E2E6" d="M10,11.299c1.061,0.091,2.049,0.282,2.964,0.571c0.915,0.29,1.707,0.653,2.378,1.089
	c0.671,0.443,1.198,0.944,1.582,1.504c0.384,0.56,0.576,1.156,0.576,1.787H0c0-0.631,0.192-1.227,0.576-1.787
	c0.384-0.56,0.911-1.061,1.582-1.504c0.67-0.436,1.463-0.799,2.378-1.089c0.915-0.29,1.903-0.48,2.964-0.571v-1.025
	c-0.345-0.195-0.669-0.457-0.972-0.786C6.226,9.159,5.96,8.789,5.732,8.379c-0.228-0.41-0.407-0.851-0.537-1.323
	C5.065,6.584,5,6.107,5,5.625C5,4.85,5.019,4.121,5.059,3.438c0.039-0.684,0.176-1.279,0.41-1.787
	c0.234-0.508,0.605-0.91,1.113-1.206C7.09,0.148,7.812,0,8.75,0s1.66,0.148,2.168,0.444c0.508,0.296,0.879,0.698,1.113,1.206
	c0.234,0.508,0.371,1.104,0.41,1.787S12.5,4.85,12.5,5.625c0,0.482-0.065,0.959-0.195,1.431c-0.13,0.472-0.309,0.913-0.537,1.323
	c-0.228,0.41-0.493,0.78-0.796,1.108c-0.303,0.329-0.627,0.591-0.972,0.786V11.299L10,11.299z"/>
</svg>
