<?xml version="1.0" encoding="utf-8"?>
<!-- Generator: Adobe Illustrator 17.0.0, SVG Export Plug-In . SVG Version: 6.00 Build 0)  -->
<!DOCTYPE svg PUBLIC "-//W3C//DTD SVG 1.1//EN" "http://www.w3.org/Graphics/SVG/1.1/DTD/svg11.dtd">
<svg version="1.1" id="Layer_1" xmlns="http://www.w3.org/2000/svg" xmlns:xlink="http://www.w3.org/1999/xlink" x="0px" y="0px"
	 width="12.5px" height="20px" viewBox="0 0 12.5 20" enable-background="new 0 0 12.5 20" xml:space="preserve">
<path fill="#D8E2E6" d="M10.625,0c0.26,0,0.504,0.049,0.732,0.147c0.228,0.098,0.426,0.231,0.596,0.4
	c0.169,0.176,0.303,0.376,0.4,0.601C12.451,1.372,12.5,1.615,12.5,1.875v16.25c0,0.26-0.049,0.503-0.147,0.728
	c-0.098,0.225-0.231,0.425-0.4,0.601c-0.176,0.169-0.376,0.303-0.601,0.4C11.128,19.951,10.885,20,10.625,20h-8.75
	c-0.261,0-0.505-0.049-0.732-0.146c-0.228-0.098-0.426-0.231-0.596-0.4c-0.169-0.176-0.303-0.376-0.4-0.601
	C0.049,18.628,0,18.385,0,18.125V1.875c0-0.26,0.049-0.504,0.146-0.732c0.098-0.228,0.231-0.426,0.4-0.596
	c0.176-0.169,0.376-0.303,0.601-0.4C1.372,0.049,1.614,0,1.875,0H10.625L10.625,0z M3.75,0.938v0.625h5V0.938H3.75L3.75,0.938z
	 M6.25,18.75c0.176,0,0.338-0.032,0.488-0.098c0.15-0.065,0.283-0.153,0.4-0.264c0.111-0.117,0.198-0.251,0.264-0.4
	C7.467,17.839,7.5,17.676,7.5,17.5s-0.033-0.338-0.098-0.488c-0.065-0.15-0.153-0.283-0.264-0.4c-0.117-0.111-0.251-0.199-0.4-0.264
	c-0.15-0.065-0.312-0.098-0.488-0.098c-0.176,0-0.339,0.033-0.488,0.098c-0.15,0.065-0.283,0.153-0.4,0.264
	c-0.111,0.117-0.199,0.251-0.264,0.4C5.032,17.162,5,17.324,5,17.5s0.032,0.339,0.098,0.488c0.065,0.15,0.153,0.283,0.264,0.4
	c0.117,0.111,0.251,0.199,0.4,0.264C5.911,18.718,6.074,18.75,6.25,18.75L6.25,18.75z M11.25,15V2.5h-10V15H11.25L11.25,15z"/>
</svg>
