<?xml version="1.0" encoding="utf-8"?>
<!-- Generator: Adobe Illustrator 17.0.0, SVG Export Plug-In . SVG Version: 6.00 Build 0)  -->
<!DOCTYPE svg PUBLIC "-//W3C//DTD SVG 1.1//EN" "http://www.w3.org/Graphics/SVG/1.1/DTD/svg11.dtd">
<svg version="1.1" id="Layer_1" xmlns="http://www.w3.org/2000/svg" xmlns:xlink="http://www.w3.org/1999/xlink" x="0px" y="0px"
	 width="66.667px" height="33.555px" viewBox="17.963 17.479 66.667 33.555" enable-background="new 17.963 17.479 66.667 33.555"
	 xml:space="preserve">
<g>
	<path fill="#D8E2E6" d="M71.08,33.584l-1.279-4.805l0.845-0.776c0,0-1.126-2.613-2.542-2.901
		c-1.413-0.276-3.669-4.659-12.221-6.143c-8.537-1.479-8.537-1.479-8.537-1.479s-0.853,4.451-0.928,10.172
		c-0.073,5.721,0,10.873,0,10.873l-13.325,0.17l-0.194-0.766l-9.859,0.524v0.367l-4.338,0.062l-0.706,0.823h-0.034l0.005,0.021
		l-0.005,0.006l0.005,0.006l1.099,6.281h0.684c0.327-2.907,2.783-5.164,5.76-5.164c3.197,0,5.794,2.598,5.794,5.797
		c0,0.141-0.005,0.284-0.01,0.425h1.233c0-0.141-0.016-0.284-0.016-0.425c0-3.199,2.589-5.797,5.791-5.797
		c3.193,0,5.789,2.598,5.789,5.797c0,0.141-0.005,0.284-0.016,0.425h1.561c0.354,0.446,0.926,0.739,1.576,0.739h7.425
		c0.651,0,1.219-0.293,1.577-0.739h2.633v0.384h7.984v-0.384h2.46c-0.011-0.141-0.021-0.284-0.021-0.425
		c0-3.199,2.59-5.797,5.794-5.797c3.193,0,5.791,2.598,5.791,5.797c0,0.141-0.01,0.284-0.026,0.425h3.377l-0.169-1.7l0.459-0.735
		c0.002,0.001,0.535-7.52-0.564-8.132C82.347,35.641,71.08,33.584,71.08,33.584z"/>
	<path fill="#D8E2E6" d="M25.513,42.383c-2.352,0-4.254,1.917-4.254,4.268c0,2.353,1.901,4.259,4.254,4.259
		c2.352,0,4.265-1.906,4.265-4.259C29.778,44.299,27.865,42.383,25.513,42.383z M25.515,49.253c-1.439,0-2.601-1.165-2.601-2.604
		c0-1.438,1.163-2.61,2.601-2.61s2.608,1.172,2.608,2.61C28.123,48.087,26.953,49.253,25.515,49.253z"/>
	<path fill="#D8E2E6" d="M38.305,42.359c-2.37,0-4.281,1.927-4.281,4.291c0,2.366,1.912,4.282,4.281,4.282
		c2.365,0,4.284-1.916,4.284-4.282C42.588,44.286,40.669,42.359,38.305,42.359z M36.403,48.561c-2.13-2.774,1.011-5.958,3.807-3.823
		C42.344,47.527,39.181,50.675,36.403,48.561z"/>
	<path fill="#D8E2E6" d="M75.069,42.257c-2.427,0-4.391,1.973-4.391,4.393c0,2.422,1.965,4.384,4.391,4.384
		c2.424,0,4.385-1.962,4.385-4.384C79.453,44.23,77.493,42.257,75.069,42.257z M73.162,48.561c-2.13-2.774,1.011-5.958,3.807-3.823
		C79.103,47.527,75.94,50.675,73.162,48.561z"/>
</g>
</svg>
