<?xml version="1.0" encoding="utf-8"?>
<!-- Generator: Adobe Illustrator 17.0.0, SVG Export Plug-In . SVG Version: 6.00 Build 0)  -->
<!DOCTYPE svg PUBLIC "-//W3C//DTD SVG 1.1//EN" "http://www.w3.org/Graphics/SVG/1.1/DTD/svg11.dtd">
<svg version="1.1" id="Layer_1" xmlns="http://www.w3.org/2000/svg" xmlns:xlink="http://www.w3.org/1999/xlink" x="0px" y="0px"
	 width="66.667px" height="60.531px" viewBox="0 0 66.667 60.531" enable-background="new 0 0 66.667 60.531" xml:space="preserve">
<g>
	<path fill="#FFCC4C" d="M62.098,0c-0.696,0-1.26,0.564-1.26,1.261v26.342v26.343c0,0.697,0.564,1.261,1.26,1.261
		c2.473,0,4.569-3.477,4.569-6.166V27.763v-0.161v-0.161V6.164C66.666,3.478,64.571,0,62.098,0"/>
	<path fill="#FFCC4C" d="M55.433,1.384c-0.312,0-0.872,0.208-0.872,0.208L29.575,13.889H12.204c-3.878,0-7.096,2.784-7.789,6.46
		C2.632,20.952,0,22.17,0,24.123v6.638c0,1.954,2.634,3.174,4.415,3.776c0.693,3.675,3.911,6.46,7.789,6.46h2.769
		c0.075,0.337,0.185,0.672,0.331,0.997l6.863,15.412c1.184,2.658,4.295,3.85,6.951,2.669c2.658-1.186,3.851-4.297,2.668-6.952
		l-0.98-2.199c3.31-0.46,5.99-2.781,6.98-5.886l17.593,8.631c0.189,0.103,0.395,0.181,0.626,0.181c0.717,0,1.336-0.566,1.336-1.284
		V3.384C57.34,1.901,56.495,1.384,55.433,1.384 M29.625,46.085c-2.017,0-3.647-1.632-3.647-3.643c0-2.013,1.63-3.646,3.647-3.646
		c2.013,0,3.644,1.633,3.644,3.646C33.27,44.453,31.638,46.085,29.625,46.085"/>
</g>
</svg>
