<?xml version="1.0" encoding="utf-8"?>
<!-- Generator: Adobe Illustrator 17.0.0, SVG Export Plug-In . SVG Version: 6.00 Build 0)  -->
<!DOCTYPE svg PUBLIC "-//W3C//DTD SVG 1.1//EN" "http://www.w3.org/Graphics/SVG/1.1/DTD/svg11.dtd">
<svg version="1.1" id="Layer_1" xmlns="http://www.w3.org/2000/svg" xmlns:xlink="http://www.w3.org/1999/xlink" x="0px" y="0px"
	 width="72.593px" height="72.593px" viewBox="0 0 72.593 72.593" enable-background="new 0 0 72.593 72.593" xml:space="preserve">
<g>
	<path fill="#44A3CE" d="M36.296,0C16.258,0,0,16.258,0,36.296c0,20.039,16.258,36.297,36.296,36.297
		c20.039,0,36.296-16.258,36.296-36.297C72.592,16.258,56.335,0,36.296,0 M36.296,10.962c14.012,0,25.456,11.323,25.456,25.334
		c0,14.012-11.444,25.335-25.456,25.335c-14.011,0-25.334-11.323-25.334-25.335C10.962,22.285,22.285,10.962,36.296,10.962
		 M28.866,14.86C19.98,17.959,13.52,26.338,13.52,36.296c0,1.494,0.214,2.972,0.487,4.385c0.207-0.193,0.434-0.335,0.731-0.487
		c-0.386-2.912,5.221-0.045,10.962-9.988c5.607-9.712,0.747-13.171,3.045-14.372C28.742,15.44,28.733,15.169,28.866,14.86
		 M43.848,14.86c0.132,0.309,0.124,0.58,0.122,0.974c2.297,1.201-2.563,4.66,3.045,14.372c5.74,9.943,11.348,7.076,10.962,9.988
		c0.237,0.122,0.428,0.219,0.609,0.365c0.258-1.377,0.487-2.81,0.487-4.263C59.073,26.338,52.735,17.959,43.848,14.86
		 M36.418,48.598c-10.969,0-11.809,5.797-13.885,4.75c-0.28,0.192-0.464,0.386-0.731,0.487c3.934,3.246,8.983,5.238,14.494,5.238
		c5.571,0,10.664-2.05,14.616-5.359c-0.256-0.101-0.463-0.182-0.731-0.366C48.105,54.395,47.387,48.598,36.418,48.598"/>
</g>
</svg>
