<?xml version="1.0" encoding="utf-8"?>
<!-- Generator: Adobe Illustrator 17.0.0, SVG Export Plug-In . SVG Version: 6.00 Build 0)  -->
<!DOCTYPE svg PUBLIC "-//W3C//DTD SVG 1.1//EN" "http://www.w3.org/Graphics/SVG/1.1/DTD/svg11.dtd">
<svg version="1.1" id="Layer_1" xmlns="http://www.w3.org/2000/svg" xmlns:xlink="http://www.w3.org/1999/xlink" x="0px" y="0px"
	 width="89.998px" height="90.001px" viewBox="0 0 89.998 90.001" enable-background="new 0 0 89.998 90.001" xml:space="preserve">
<g>
	<path fill="#FFCC4C" d="M45.145,0C20.294-0.083,0.078,20,0,44.854C-0.078,69.712,20.011,89.917,44.861,90
		c24.844,0.078,45.059-20.01,45.137-44.858C90.076,20.288,69.998,0.079,45.145,0 M43.484,15.869c1.426-1.44,3.184-2.168,5.234-2.153
		c2.061,0,3.828,0.737,5.254,2.183c1.416,1.445,2.119,3.203,2.119,5.234c-0.01,2.041-0.742,3.799-2.178,5.229
		c-1.445,1.436-3.213,2.158-5.244,2.153c-2.021-0.01-3.77-0.747-5.195-2.188c-1.436-1.44-2.158-3.203-2.148-5.239
		C41.336,19.052,42.059,17.295,43.484,15.869 M56.941,63.77c-2.129,7.666-8.086,13.008-14.492,12.988
		c-1.406-0.005-5.713-0.02-8.643-4.111c-1.045-1.475-2.422-5.176-0.908-9.712c1.27-3.833,5.332-15.503,5.635-16.362
		c0.361-1.235,0.479-1.953,0.518-2.354c-0.029-0.005-0.068-0.01-0.117-0.01c-0.361,0.044-1.65,0.249-2.607,0.4
		c-2.354,0.366-2.881,0.444-3.154,0.459l-2.354,0.107l0.859-7.31l16.836-3.247l4.727,0.015L44.764,63.5
		c-0.127,0.552,0.225,1.899,0.557,2.085c0.029-0.005,0.059-0.01,0.078-0.01c2.305-0.342,4.639-2.764,6.045-4.912l1.191-1.812
		l4.668,3.623L56.941,63.77z"/>
</g>
</svg>
