<?xml version="1.0" encoding="utf-8"?>
<!-- Generator: Adobe Illustrator 17.0.0, SVG Export Plug-In . SVG Version: 6.00 Build 0)  -->
<!DOCTYPE svg PUBLIC "-//W3C//DTD SVG 1.1//EN" "http://www.w3.org/Graphics/SVG/1.1/DTD/svg11.dtd">
<svg version="1.1" id="Layer_1" xmlns="http://www.w3.org/2000/svg" xmlns:xlink="http://www.w3.org/1999/xlink" x="0px" y="0px"
	 width="56.797px" height="66.667px" viewBox="0 0 56.797 66.667" enable-background="new 0 0 56.797 66.667" xml:space="preserve">
<g>
	<path fill="#44A3CE" d="M28.399,0.001C12.718,0.001,0,12.718,0,28.399c0,7.843,3.181,14.944,8.32,20.084
		c5.14,5.139,20.079,18.184,20.079,18.184s14.944-13.045,20.084-18.184c5.139-5.14,8.314-12.241,8.314-20.084
		C56.797,12.719,44.084,0.001,28.399,0.001 M28.476,51.282c-12.545,0-22.719-10.173-22.719-22.719S15.931,5.844,28.476,5.844
		s22.719,10.174,22.719,22.719S41.022,51.282,28.476,51.282"/>
	<path fill="#44A3CE" d="M38.021,20.74c0.037,5.415-4.244,9.637-9.541,9.637h-0.007c-5.296,0-9.578-4.222-9.541-9.637
		c-0.037-5.356,4.245-9.622,9.541-9.622h0.007C33.777,11.118,38.058,15.384,38.021,20.74"/>
	<path fill="#44A3CE" d="M46.428,38.377c-3.467,6.348-10.207,10.644-17.956,10.644c-7.74,0-14.481-4.288-17.955-10.637
		c0.007-0.007,0.007-0.007,0.007-0.014c2.193-2.941,4.941-5.03,7.837-5.03h20.23c2.904,0,5.644,2.089,7.83,5.03L46.428,38.377z"/>
</g>
</svg>
