<?xml version="1.0" encoding="utf-8"?>
<!-- Generator: Adobe Illustrator 17.0.0, SVG Export Plug-In . SVG Version: 6.00 Build 0)  -->
<!DOCTYPE svg PUBLIC "-//W3C//DTD SVG 1.1//EN" "http://www.w3.org/Graphics/SVG/1.1/DTD/svg11.dtd">
<svg version="1.1" id="Layer_1" xmlns="http://www.w3.org/2000/svg" xmlns:xlink="http://www.w3.org/1999/xlink" x="0px" y="0px"
	 width="783.799px" height="957.599px" viewBox="0 0 783.799 957.599" enable-background="new 0 0 783.799 957.599"
	 xml:space="preserve">
<g>
	<path fill="#44A3CE" d="M731,108.4h-28v687.901c0,45.699-37.2,82.898-82.899,82.898H336.4H110.8v25.5c0,29.201,23.7,52.9,52.9,52.9
		h283.6h283.6c29.2,0,52.899-23.699,52.899-52.9V161.3C783.8,132.1,760.2,108.4,731,108.4"/>
	<path fill="#44A3CE" d="M23,212.5h144.9h0.4c24.2-0.2,43.8-19.8,44-44v-0.4v-145c0-13.4-11-22.3-22.399-22.3c-5.5,0-11,2-15.6,6.6
		L7.2,174.5C-6.8,188.5,3.1,212.5,23,212.5"/>
	<path fill="#44A3CE" d="M620,0H336.4h-94.3v17.5c0.199,1.8,0.3,3.7,0.3,5.6v115.3V168c0,41.1-33.4,74.5-74.5,74.5h-29.6H23
		c-1.5,0-3.1-0.1-4.6-0.2H0v554.001c0,29.199,23.7,52.898,52.9,52.898h58h225.5H620c29.2,0,52.9-23.699,52.9-52.898V108.4V52.9
		C672.9,23.7,649.2,0,620,0 M492.895,457.6c0.066,0.106,0.139,0.202,0.143,0.249l-53.61,54.018l13.912,78.769
		c-0.066,0.059-0.099,0.099-0.169,0.136c0.092,1.056,0.169,2.112,0.169,3.16c0,20.108-16.295,36.403-36.392,36.403
		c-7.603,0-14.66-2.317-20.503-6.302l-65.958-33.03l-68.644,34.163c-5.47,3.27-11.83,5.165-18.63,5.165
		c-20.119,0-36.414-16.299-36.414-36.403c0-4.333,0.795-8.461,2.192-12.328c-0.044-0.018-0.08-0.037-0.121-0.059l12.688-69.682
		l-52.195-52.547c-8.898-6.657-14.682-17.23-14.682-29.195c0-18.961,14.52-34.533,33.07-36.231c0.011-0.044,0.022-0.102,0.029-0.146
		l75.379-9.957l32.41-66.929c4.81-14.462,18.436-24.888,34.511-24.888c15.515,0,28.712,9.726,33.961,23.385l33.771,68.432
		l77.036,10.374c0.04,0.015,0.091,0.055,0.124,0.099c17.289,2.827,30.482,17.791,30.482,35.857
		C505.454,441.103,500.571,450.917,492.895,457.6"/>
</g>
</svg>
