<?xml version="1.0" encoding="utf-8"?>
<!-- Generator: Adobe Illustrator 17.0.0, SVG Export Plug-In . SVG Version: 6.00 Build 0)  -->
<!DOCTYPE svg PUBLIC "-//W3C//DTD SVG 1.1//EN" "http://www.w3.org/Graphics/SVG/1.1/DTD/svg11.dtd">
<svg version="1.1" id="Layer_1" xmlns="http://www.w3.org/2000/svg" xmlns:xlink="http://www.w3.org/1999/xlink" x="0px" y="0px"
	 width="317.002px" height="223.227px" viewBox="0 0 317.002 223.227" enable-background="new 0 0 317.002 223.227"
	 xml:space="preserve">
<g>
	<g>
		<g>
			<g>
				<path fill="#AFB4B9" d="M0,219.139v-43.723c0-0.963,0.317-1.773,0.951-2.432c0.635-0.657,1.409-0.986,2.325-0.986h14.34
					c0.916,0,1.785,0.329,2.607,0.986c0.822,0.658,1.374,1.444,1.656,2.36l10.394,30.089l10.394-30.089
					c0.281-0.916,0.833-1.702,1.655-2.36c0.822-0.657,1.691-0.986,2.607-0.986h14.34c0.916,0,1.686,0.329,2.308,0.986
					c0.622,0.658,0.934,1.469,0.934,2.432v43.723c0,0.964-0.323,1.769-0.969,2.414c-0.646,0.646-1.427,0.969-2.343,0.969h-6.342
					c-0.916,0-1.697-0.322-2.343-0.969c-0.646-0.646-0.97-1.45-0.97-2.414v-34.422l-12.437,34.634
					c-0.329,0.869-0.904,1.615-1.727,2.237s-1.691,0.934-2.607,0.934h-5.038c-0.916,0-1.779-0.312-2.59-0.934
					c-0.81-0.622-1.392-1.368-1.743-2.237l-12.402-34.634v34.422c0,0.964-0.323,1.769-0.969,2.414
					c-0.646,0.646-1.427,0.969-2.343,0.969H3.348c-0.916,0-1.704-0.322-2.361-0.969C0.329,220.908,0,220.103,0,219.139z"/>
				<path fill="#AFB4B9" d="M75.743,218.153c-3.664-3.382-5.496-8.367-5.496-14.956c0-6.588,1.832-11.567,5.496-14.938
					c3.664-3.37,8.932-5.056,15.802-5.056s12.138,1.686,15.802,5.056c3.664,3.371,5.496,8.351,5.496,14.938
					c0,6.589-1.832,11.574-5.496,14.956c-3.664,3.383-8.932,5.074-15.802,5.074S79.407,221.535,75.743,218.153z M84.657,194.054
					c-1.457,1.902-2.185,4.944-2.185,9.125c0,4.182,0.728,7.235,2.185,9.16c1.456,1.927,3.752,2.89,6.888,2.89
					s5.438-0.963,6.905-2.89c1.468-1.925,2.202-4.979,2.202-9.16c0-4.181-0.734-7.223-2.202-9.125s-3.77-2.854-6.905-2.854
					S86.113,192.152,84.657,194.054z"/>
				<path fill="#AFB4B9" d="M114.643,183.907h6.765c1.009,0,1.961,0.288,2.854,0.863c0.893,0.576,1.526,1.321,1.902,2.237
					l9.618,21.95l9.584-21.95c0.375-0.916,1.01-1.661,1.902-2.237c0.893-0.575,1.844-0.863,2.854-0.863h6.8
					c0.822,0,1.362,0.306,1.621,0.916c0.117,0.235,0.17,0.535,0.158,0.898c-0.012,0.365-0.123,0.793-0.334,1.286l-15.221,32.414
					c-0.423,0.916-1.087,1.662-1.991,2.237c-0.904,0.576-1.838,0.863-2.801,0.863h-5.179c-0.964,0-1.892-0.287-2.783-0.863
					c-0.894-0.575-1.551-1.321-1.974-2.237l-15.221-32.414c-0.234-0.517-0.352-0.951-0.352-1.304
					C112.846,184.506,113.444,183.907,114.643,183.907z"/>
				<path fill="#AFB4B9" d="M164.119,218.082c-3.617-3.429-5.426-8.367-5.426-14.815c0-6.447,1.819-11.403,5.461-14.868
					c3.641-3.464,8.69-5.196,15.149-5.196c6.46,0,11.498,1.686,15.115,5.056c3.617,3.371,5.426,8.204,5.426,14.498v2.009
					c0,0.634-0.206,1.157-0.616,1.567c-0.411,0.411-0.934,0.616-1.568,0.616h-26.53c0.234,2.89,1.062,4.992,2.484,6.307
					c1.421,1.316,3.693,1.974,6.817,1.974s5.261-0.705,6.412-2.114c1.15-1.409,2.572-2.125,4.264-2.149h5.249
					c0.635,0,1.157,0.206,1.568,0.617c0.41,0.411,0.616,0.934,0.616,1.567c0,6.742-6.424,10.1-19.272,10.077
					C172.786,223.227,167.735,221.512,164.119,218.082z M171.06,199.515h16.384c-0.235-5.543-2.954-8.314-8.157-8.314
					C174.084,191.201,171.342,193.972,171.06,199.515z"/>
				<path fill="#AFB4B9" d="M205.604,219.139v-43.723c0-0.963,0.317-1.773,0.951-2.432c0.635-0.657,1.409-0.986,2.325-0.986h14.34
					c0.916,0,1.785,0.329,2.607,0.986c0.822,0.658,1.374,1.444,1.656,2.36l10.394,30.089l10.394-30.089
					c0.281-0.916,0.833-1.702,1.655-2.36c0.822-0.657,1.691-0.986,2.607-0.986h14.34c0.916,0,1.686,0.329,2.308,0.986
					c0.622,0.658,0.934,1.469,0.934,2.432v43.723c0,0.964-0.323,1.769-0.969,2.414c-0.646,0.646-1.427,0.969-2.343,0.969h-6.342
					c-0.916,0-1.697-0.322-2.343-0.969c-0.646-0.646-0.97-1.45-0.97-2.414v-34.422l-12.437,34.634
					c-0.329,0.869-0.904,1.615-1.727,2.237s-1.691,0.934-2.607,0.934h-5.038c-0.916,0-1.779-0.312-2.59-0.934
					c-0.81-0.622-1.392-1.368-1.743-2.237l-12.402-34.634v34.422c0,0.964-0.323,1.769-0.969,2.414
					c-0.646,0.646-1.427,0.969-2.343,0.969h-6.342c-0.916,0-1.704-0.322-2.361-0.969
					C205.933,220.908,205.604,220.103,205.604,219.139z"/>
				<path fill="#AFB4B9" d="M281.276,218.082c-3.617-3.429-5.426-8.367-5.426-14.815c0-6.447,1.819-11.403,5.461-14.868
					c3.641-3.464,8.69-5.196,15.149-5.196c6.46,0,11.498,1.686,15.115,5.056c3.617,3.371,5.426,8.204,5.426,14.498v2.009
					c0,0.634-0.206,1.157-0.616,1.567c-0.411,0.411-0.934,0.616-1.568,0.616h-26.53c0.234,2.89,1.062,4.992,2.484,6.307
					c1.421,1.316,3.693,1.974,6.817,1.974s5.261-0.705,6.412-2.114c1.15-1.409,2.572-2.125,4.264-2.149h5.249
					c0.635,0,1.157,0.206,1.568,0.617c0.41,0.411,0.616,0.934,0.616,1.567c0,6.742-6.424,10.1-19.272,10.077
					C289.943,223.227,284.893,221.512,281.276,218.082z M288.217,199.515h16.384c-0.235-5.543-2.954-8.314-8.157-8.314
					C291.241,191.201,288.499,193.972,288.217,199.515z"/>
			</g>
		</g>
		<g>
			<g>
				<g>
					<path fill="#AFB4B9" d="M106.592,37.47h-4.405c-0.971,0-1.765,0.79-1.765,1.762v25.914c0,0.97,0.793,1.762,1.765,1.762h4.405
						c0.97,0,1.762-0.792,1.762-1.762V39.232C108.354,38.26,107.56,37.47,106.592,37.47z"/>
					<path fill="#AFB4B9" d="M215.108,37.47h-4.405c-0.971,0-1.762,0.79-1.762,1.762v25.914c0,0.97,0.79,1.762,1.762,1.762h4.405
						c0.971,0,1.762-0.792,1.762-1.762V39.232C216.87,38.26,216.079,37.47,215.108,37.47z"/>
					<path fill="#AFB4B9" d="M205.441,72.868c0-1.782-1.324-3.239-3.042-3.476c0.037-0.359,0.064-0.717,0.064-1.093V11.383
						c0-3.539-1.58-6.407-3.523-6.407c0,0-21.352-4.975-40.166-4.975s-40.419,4.975-40.419,4.975c-1.947,0-3.526,2.869-3.526,6.407
						v56.914c0,0.376,0.027,0.734,0.061,1.093c-1.715,0.237-3.039,1.694-3.039,3.476v14.745c-0.754,0.648-1.242,1.594-1.242,2.667
						v16.266c0,1.074,0.487,2.019,1.242,2.67v24.696c0,1.582,1.053,2.903,2.491,3.354v1.249c0,1.949,1.573,3.526,3.523,3.526h5.478
						c1.206,0,2.268-0.607,2.905-1.527c0.636,0.92,1.694,1.527,2.898,1.527h5.478c1.951,0,3.529-1.577,3.529-3.526v-1.078h40.992
						v1.078c0,1.949,1.58,3.526,3.523,3.526h5.478c1.209,0,2.271-0.607,2.905-1.527c0.636,0.92,1.701,1.527,2.903,1.527h5.478
						c1.946,0,3.523-1.577,3.523-3.526v-1.249c1.441-0.451,2.488-1.774,2.488-3.354v-24.694c0.754-0.651,1.245-1.596,1.245-2.67
						V90.281c0-1.074-0.489-2.019-1.245-2.667V72.868H205.441z M158.647,33.169c15.618,0,41.819,1.66,41.819,1.66l-1.602,33.168
						l-0.884,1.345h-78.665l-0.885-1.345l-1.609-33.168C116.821,34.829,143.029,33.169,158.647,33.169z M181.088,90.641h-22.441
						h-22.442l-6.442-2.097l-0.394-2.725h29.278h29.278l-0.387,2.727L181.088,90.641z M186.517,92.82l-0.373,2.719l-6.136,2.104
						h-21.362h-21.36l-6.139-2.104l-0.373-2.719h27.872H186.517z M116.591,132.773c-1.243,0-2.253-1.009-2.253-2.255
						c0-1.245,1.009-2.253,2.253-2.253s2.257,1.009,2.257,2.253C118.848,131.764,117.834,132.773,116.591,132.773z M131.903,123.645
						c0,1.949-1.576,3.526-3.523,3.526l-10.516-1.245c-1.944,0-3.523-1.58-3.523-3.526v-2.742c0-1.949,1.579-3.526,3.523-3.526
						l10.516,2.485c1.958,0.6,3.523,1.58,3.523,3.529V123.645z M181.895,123.523l-5.186,2.097h-18.062h-18.056l-5.192-2.097
						l-0.319-2.719h23.567h23.565L181.895,123.523z M183.672,116.53l-5.584,2.097h-19.441h-19.439l-5.584-2.097l-0.336-2.725h25.36
						h25.361L183.672,116.53z M184.217,109.533l-5.703,2.097h-19.867h-19.859l-5.706-2.097l-0.344-2.725h25.909h25.909
						L184.217,109.533z M179.428,104.635h-20.781h-20.779l-5.97-2.104l-0.359-2.719h27.109h27.109l-0.361,2.719L179.428,104.635z
						 M188.979,127.171c-1.944,0-3.525-1.577-3.525-3.526v-1.499c0-1.949,1.563-2.93,3.525-3.529l10.513-2.485
						c1.949,0,3.529,1.577,3.529,3.526v2.742c0,1.946-1.58,3.526-3.529,3.526L188.979,127.171z M200.774,132.773
						c-1.249,0-2.258-1.009-2.258-2.255c0-1.245,1.009-2.253,2.258-2.253c1.238,0,2.25,1.009,2.25,2.253
						C203.024,131.764,202.012,132.773,200.774,132.773z"/>
				</g>
			</g>
			<path fill="#AFB4B9" d="M274.214,50.99c0-1.593-1.206-2.895-2.67-2.895h-3.412c-1.252,0-2.306,0.943-2.593,2.206
				c-1.594,0.21-6.036,2.574-7.783,3.572l0.963,0.981c0.42,0.637,0.345,1.293,0.5,1.917c1.149-0.645,4.988-2.902,6.085-3.104
				l-0.648,11.22c0,1.591,1.202,2.895,2.673,2.895h5.011c1.471,0,2.678-1.303,2.678-2.895L274.214,50.99z"/>
			<g>
				<g>
					<path fill="#AFB4B9" d="M106.592,37.47h-4.405c-0.971,0-1.765,0.79-1.765,1.762v25.914c0,0.97,0.793,1.762,1.765,1.762h4.405
						c0.97,0,1.762-0.792,1.762-1.762V39.232C108.354,38.26,107.56,37.47,106.592,37.47z"/>
					<path fill="#AFB4B9" d="M215.108,37.47h-4.405c-0.971,0-1.762,0.79-1.762,1.762v25.914c0,0.97,0.79,1.762,1.762,1.762h4.405
						c0.971,0,1.762-0.792,1.762-1.762V39.232C216.87,38.26,216.079,37.47,215.108,37.47z"/>
					<path fill="#AFB4B9" d="M205.441,72.868c0-1.782-1.324-3.239-3.042-3.476c0.037-0.359,0.064-0.717,0.064-1.093V11.383
						c0-3.539-1.58-6.407-3.523-6.407c0,0-21.352-4.975-40.166-4.975s-40.419,4.975-40.419,4.975c-1.947,0-3.526,2.869-3.526,6.407
						v56.914c0,0.376,0.027,0.734,0.061,1.093c-1.715,0.237-3.039,1.694-3.039,3.476v14.745c-0.754,0.648-1.242,1.594-1.242,2.667
						v16.266c0,1.074,0.487,2.019,1.242,2.67v24.696c0,1.582,1.053,2.903,2.491,3.354v1.249c0,1.949,1.573,3.526,3.523,3.526h5.478
						c1.206,0,2.268-0.607,2.905-1.527c0.636,0.92,1.694,1.527,2.898,1.527h5.478c1.951,0,3.529-1.577,3.529-3.526v-1.078h40.992
						v1.078c0,1.949,1.58,3.526,3.523,3.526h5.478c1.209,0,2.271-0.607,2.905-1.527c0.636,0.92,1.701,1.527,2.903,1.527h5.478
						c1.946,0,3.523-1.577,3.523-3.526v-1.249c1.441-0.451,2.488-1.774,2.488-3.354v-24.694c0.754-0.651,1.245-1.596,1.245-2.67
						V90.281c0-1.074-0.489-2.019-1.245-2.667V72.868H205.441z M158.647,33.169c15.618,0,41.819,1.66,41.819,1.66l-1.602,33.168
						l-0.884,1.345h-78.665l-0.885-1.345l-1.609-33.168C116.821,34.829,143.029,33.169,158.647,33.169z M181.088,90.641h-22.441
						h-22.442l-6.442-2.097l-0.394-2.725h29.278h29.278l-0.387,2.727L181.088,90.641z M186.517,92.82l-0.373,2.719l-6.136,2.104
						h-21.362h-21.36l-6.139-2.104l-0.373-2.719h27.872H186.517z M116.591,132.773c-1.243,0-2.253-1.009-2.253-2.255
						c0-1.245,1.009-2.253,2.253-2.253s2.257,1.009,2.257,2.253C118.848,131.764,117.834,132.773,116.591,132.773z M131.903,123.645
						c0,1.949-1.576,3.526-3.523,3.526l-10.516-1.245c-1.944,0-3.523-1.58-3.523-3.526v-2.742c0-1.949,1.579-3.526,3.523-3.526
						l10.516,2.485c1.958,0.6,3.523,1.58,3.523,3.529V123.645z M181.895,123.523l-5.186,2.097h-18.062h-18.056l-5.192-2.097
						l-0.319-2.719h23.567h23.565L181.895,123.523z M183.672,116.53l-5.584,2.097h-19.441h-19.439l-5.584-2.097l-0.336-2.725h25.36
						h25.361L183.672,116.53z M184.217,109.533l-5.703,2.097h-19.867h-19.859l-5.706-2.097l-0.344-2.725h25.909h25.909
						L184.217,109.533z M179.428,104.635h-20.781h-20.779l-5.97-2.104l-0.359-2.719h27.109h27.109l-0.361,2.719L179.428,104.635z
						 M188.979,127.171c-1.944,0-3.525-1.577-3.525-3.526v-1.499c0-1.949,1.563-2.93,3.525-3.529l10.513-2.485
						c1.949,0,3.529,1.577,3.529,3.526v2.742c0,1.946-1.58,3.526-3.529,3.526L188.979,127.171z M200.774,132.773
						c-1.249,0-2.258-1.009-2.258-2.255c0-1.245,1.009-2.253,2.258-2.253c1.238,0,2.25,1.009,2.25,2.253
						C203.024,131.764,202.012,132.773,200.774,132.773z"/>
				</g>
			</g>
		</g>
	</g>
	<path fill="#AFB4B9" d="M103.703,74.535c-11.227,0-22.454,0.009-33.68-0.007c-2.503-0.003-4.401-1.496-4.869-3.779
		c-0.116-0.568-0.11-1.167-0.11-1.752c-0.006-8.108-0.008-16.217,0-24.325c0.003-3.56,1.866-5.414,5.436-5.414
		c7.981-0.001,24.788,0,27.169,0v-2.668c0-1.169,1.148-2.121,2.554-2.121h7.377c0.456,0,0.879,0.109,1.251,0.285v-5.536
		c-8.391,0.004-16.781,0.008-25.172,0.03c-0.542,0.001-1.213,0.289-1.604,0.669c-2.815,2.736-10.536,5.957-12.137,5.914
		c-4.064-0.109-7.087,2.266-8.115,6.198c-0.163,0.621-0.413,0.828-1.037,0.818c-1.981-0.032-3.962-0.019-5.943-0.01
		c-2.426,0.012-3.803,1.402-3.818,3.841c-0.006,1.05-0.001,2.1-0.001,3.133c-2.586,0.177-3.514,0.901-3.52,2.731
		c-0.017,5.246-0.012,10.493,0.004,15.739c0.005,1.638,0.936,2.575,2.571,2.68c0.255,0.016,0.511,0.029,0.947,0.053
		c0,1.178-0.016,2.272,0.003,3.365c0.037,2.121,1.479,3.579,3.608,3.621c1.504,0.03,3.008,0.007,4.512,0.007c0.79,0,1.579,0,2.441,0
		c0,2.199,0.035,4.214-0.025,6.226c-0.015,0.497-0.23,1.064-0.532,1.463c-1.724,2.281-2.929,4.783-2.943,7.669
		c-0.049,9.685-0.023,19.371-0.016,29.057c0.001,2.068,0.938,3.598,2.813,4.467c0.568,0.263,0.726,0.566,0.717,1.151
		c-0.031,2.091-0.019,4.182-0.01,6.273c0.01,2.15,1.349,3.553,3.471,3.569c3.559,0.026,7.118,0.027,10.676,0
		c1.985-0.015,3.378-1.434,3.402-3.421c0.024-2.018,0.005-4.036,0.005-6.053c0-0.347,0-0.693,0-0.997c8.954,0,17.851,0,26.725,0
		v-18.196c-0.754-0.651-1.241-1.596-1.241-2.67v-0.374c-1.408,0-2.823,0-4.27,0c0-4.64,0-9.276,0-14.031c1.445,0,2.857,0,4.27,0
		v-1.861c0-0.601-0.222-3.438,1.241-3.438V74.543c-0.716,0-1.433,0-2.149,0C103.703,74.54,103.703,74.538,103.703,74.535z
		 M61.491,74.462c-2.301,0-4.589,0-6.95,0c0-1.131,0-2.247,0-3.44c2.826-0.182,3.457-0.874,3.451-3.618
		c-0.01-4.623-0.002-9.246-0.004-13.869c-0.001-2.904-0.495-3.452-3.437-3.73c0-1.107,0-2.225,0-3.424c2.281,0,4.571,0,6.939,0
		C61.491,55.716,61.491,65.049,61.491,74.462z M89.748,92.165c2.327,0,4.613,0,6.976,0c0,4.644,0,9.275,0,13.994
		c-2.267,0-4.553,0-6.976,0C89.748,101.494,89.748,96.864,89.748,92.165z M86.189,92.191c0,4.657,0,9.26,0,14.031
		c-1.425,0-4.705-0.353-4.811-0.587c-1.953-4.3-3.572-8.715-4.603-13.444C79.912,92.191,82.99,92.191,86.189,92.191z
		 M76.673,109.713c1.057,0.003,1.831,0.58,2.316,1.442c1.22,2.168,2.385,4.367,3.541,6.57c0.404,0.769,0.151,1.518-0.54,1.914
		c-0.637,0.365-1.415,0.634-2.142,0.666c-2.011,0.088-4.029,0.031-6.044,0.031c0-0.003,0-0.007,0-0.01
		c-2.052,0-4.104,0.015-6.155-0.005c-1.569-0.015-2.564-0.956-2.598-2.509c-0.041-1.904-0.043-3.811,0-5.715
		c0.031-1.354,1.037-2.36,2.39-2.375C70.518,109.688,73.595,109.704,76.673,109.713z M75.66,100.993
		c-0.023,2.913-2.443,5.276-5.376,5.251c-2.926-0.025-5.266-2.429-5.237-5.379c0.03-2.996,2.414-5.276,5.473-5.235
		C73.367,95.669,75.683,98.085,75.66,100.993z"/>
	<path fill="#AFB4B9" d="M263.633,119.685V73.691l-4.699-34.235c0,0-1.027-9.646-11.315-10.771
		c-11.034-1.207-21.694-1.476-30.969-1.467v-0.001c-0.089,0-0.179,0.001-0.269,0.001c-0.084,0-0.176-0.001-0.264-0.001v0.001
		c-2.312-0.002-4.708,0.019-7.175,0.069v4.048c2.309-0.046,4.785-0.074,7.441-0.077c19.77,0.02,29.966,1.424,29.966,1.424
		c1.46,0.199,3.029,1.603,3.482,3.116l0.424,1.392c0.452,1.514-0.374,2.753-1.845,2.753h-25.062v3.013h26.221
		c4.03,0,5.081,2.783,5.569,7.002l3.56,34.739c0.334,3.33-0.377,6.635-3.755,6.635h-38.505h-0.106h-3.163v11.621
		c0,1.074-0.49,2.019-1.245,2.67v6.404h14.797c1.1,0,2,0.9,2,2v2.75c0,1.1-0.9,2-2,2h-14.797v11.04
		c1.427,0.031,2.833,0.054,4.195,0.059v0.006c0.087,0,0.18-0.003,0.264-0.003c0.09,0,0.18,0.003,0.269,0.003v-0.006
		c8.814-0.033,19.046-0.576,30.075-2.112c0.469-0.066,0.92-0.13,1.357-0.197v2.284c0,1.678,0.317,4.308,1.511,4.832
		c1.964,0.862,9.191,1.008,10.812-0.062c1.005-0.663,1.255-3.07,1.255-4.77v-2.38l2.995-0.038v-4.75L263.633,119.685z
		 M258.698,109.945L258.698,109.945c-0.001,0-0.131,0.977-1.297,1.658c-1.164,0.676-3.886,2.259-3.886,2.259
		s-1.815,0.755-3.628,0.755c-1.813,0-10.882,0-10.882,0s-6.995-0.151,4.924-8.736c11.92-8.587,14.77-5.424,14.77-2.562V109.945z"/>
</g>
</svg>
