<?xml version="1.0" encoding="utf-8"?>
<!-- Generator: Adobe Illustrator 17.0.0, SVG Export Plug-In . SVG Version: 6.00 Build 0)  -->
<!DOCTYPE svg PUBLIC "-//W3C//DTD SVG 1.1//EN" "http://www.w3.org/Graphics/SVG/1.1/DTD/svg11.dtd">
<svg version="1.1" id="Layer_1" xmlns="http://www.w3.org/2000/svg" xmlns:xlink="http://www.w3.org/1999/xlink" x="0px" y="0px"
	 width="588.632px" height="142.041px" viewBox="0 0 588.632 142.041" enable-background="new 0 0 588.632 142.041"
	 xml:space="preserve">
<g>
	<g>
		<g opacity="0.7">
			<g>
				<defs>
					<rect id="SVGID_1_" x="271.63" y="111.858" width="9.923" height="14.243"/>
				</defs>
				<clipPath id="SVGID_2_">
					<use xlink:href="#SVGID_1_"  overflow="visible"/>
				</clipPath>
				<polygon clip-path="url(#SVGID_2_)" fill="#FFFFFF" points="281.553,114.52 274.751,114.52 274.751,126.102 271.63,126.102 
					271.63,111.859 281.553,111.859 				"/>
			</g>
		</g>
		<g opacity="0.7">
			<g>
				<defs>
					<rect id="SVGID_3_" x="282.99" y="111.519" width="14.043" height="14.923"/>
				</defs>
				<clipPath id="SVGID_4_">
					<use xlink:href="#SVGID_3_"  overflow="visible"/>
				</clipPath>
				<path clip-path="url(#SVGID_4_)" fill="#FFFFFF" d="M297.033,119.001c0,4.441-2.82,7.441-7.001,7.441
					c-4.221,0-7.042-2.98-7.042-7.441c0-4.521,2.801-7.482,7.061-7.482C294.213,111.519,297.033,114.54,297.033,119.001
					 M286.151,118.94c0,3.061,1.48,4.9,3.9,4.921c2.362,0,3.822-1.881,3.822-4.921c0-3.001-1.481-4.861-3.862-4.861
					C287.651,114.079,286.151,115.979,286.151,118.94"/>
			</g>
		</g>
		<g opacity="0.7">
			<g>
				<defs>
					<rect id="SVGID_5_" x="299.69" y="111.858" width="11.362" height="14.243"/>
				</defs>
				<clipPath id="SVGID_6_">
					<use xlink:href="#SVGID_5_"  overflow="visible"/>
				</clipPath>
				<path clip-path="url(#SVGID_6_)" fill="#FFFFFF" d="M305.832,111.859c3.08,0,5.221,1.44,5.221,4.581
					c0,3.101-2.2,4.541-5.062,4.541h-3.2v5.121h-3.101v-14.243H305.832z M302.791,118.52h2.78c1.401,0,2.441-0.46,2.441-2.04
					c0-1.521-1.04-2.061-2.42-2.061h-2.801V118.52z"/>
			</g>
		</g>
		<g opacity="0.7">
			<g>
				<defs>
					<rect id="SVGID_7_" x="312.889" y="111.519" width="14.043" height="14.923"/>
				</defs>
				<clipPath id="SVGID_8_">
					<use xlink:href="#SVGID_7_"  overflow="visible"/>
				</clipPath>
				<path clip-path="url(#SVGID_8_)" fill="#FFFFFF" d="M326.932,119.001c0,4.441-2.82,7.441-7.001,7.441
					c-4.221,0-7.042-2.98-7.042-7.441c0-4.521,2.801-7.482,7.061-7.482C324.112,111.519,326.932,114.54,326.932,119.001
					 M316.05,118.94c0,3.061,1.48,4.9,3.9,4.921c2.362,0,3.822-1.881,3.822-4.921c0-3.001-1.481-4.861-3.862-4.861
					C317.55,114.079,316.05,115.979,316.05,118.94"/>
			</g>
		</g>
		<g opacity="0.7">
			<g>
				<defs>
					<rect id="SVGID_9_" x="327.83" y="111.858" width="15.083" height="17.904"/>
				</defs>
				<clipPath id="SVGID_10_">
					<use xlink:href="#SVGID_9_"  overflow="visible"/>
				</clipPath>
				<path clip-path="url(#SVGID_10_)" fill="#FFFFFF" d="M339.892,129.762v-3.661h-9.042v3.661h-3.021v-6.321h1.08
					c1.681-2.241,2.281-5.222,2.281-9.423v-2.16h10.142v11.583h1.58v6.321H339.892z M338.211,114.399h-3.921v0.239
					c0,3.902-0.64,6.502-1.9,8.803h5.821V114.399z"/>
			</g>
		</g>
		<g opacity="0.7">
			<g>
				<defs>
					<rect id="SVGID_11_" x="344.569" y="111.519" width="13.263" height="14.923"/>
				</defs>
				<clipPath id="SVGID_12_">
					<use xlink:href="#SVGID_11_"  overflow="visible"/>
				</clipPath>
				<path clip-path="url(#SVGID_12_)" fill="#FFFFFF" d="M351.451,126.441c-4.141,0-6.882-2.98-6.882-7.481
					c0-4.141,2.641-7.442,7.002-7.442c3.421,0,5.921,2.16,6.161,5.101h-3.06c-0.321-1.56-1.481-2.481-3.161-2.481
					c-2.741,0-3.801,2.461-3.801,4.842c0,2.94,1.461,4.82,3.761,4.82c1.88,0,3.001-1.12,3.26-3.2h3.101
					C357.513,124.081,355.351,126.441,351.451,126.441"/>
			</g>
		</g>
		<g opacity="0.7">
			<g>
				<defs>
					<rect id="SVGID_13_" x="360.469" y="111.858" width="13.144" height="14.243"/>
				</defs>
				<clipPath id="SVGID_14_">
					<use xlink:href="#SVGID_13_"  overflow="visible"/>
				</clipPath>
				<polygon clip-path="url(#SVGID_14_)" fill="#FFFFFF" points="367.511,117.48 373.613,126.102 369.692,126.102 365.37,119.701 
					363.55,121.501 363.55,126.102 360.469,126.102 360.469,111.859 363.55,111.859 363.55,117.781 369.152,111.859 
					373.092,111.859 				"/>
			</g>
		</g>
		<g opacity="0.7">
			<g>
				<defs>
					<rect id="SVGID_15_" x="375.369" y="111.858" width="12.063" height="14.243"/>
				</defs>
				<clipPath id="SVGID_16_">
					<use xlink:href="#SVGID_15_"  overflow="visible"/>
				</clipPath>
				<polygon clip-path="url(#SVGID_16_)" fill="#FFFFFF" points="387.432,126.102 384.311,126.102 384.311,116.22 384.25,116.22 
					378.89,126.102 375.369,126.102 375.369,111.859 378.49,111.859 378.49,121.721 378.549,121.721 383.911,111.859 
					387.432,111.859 				"/>
			</g>
		</g>
		<g opacity="0.7">
			<g>
				<defs>
					<rect id="SVGID_17_" x="390.689" y="111.858" width="10.822" height="14.243"/>
				</defs>
				<clipPath id="SVGID_18_">
					<use xlink:href="#SVGID_17_"  overflow="visible"/>
				</clipPath>
				<polygon clip-path="url(#SVGID_18_)" fill="#FFFFFF" points="401.372,114.419 393.79,114.419 393.79,117.52 400.752,117.52 
					400.752,119.981 393.79,119.981 393.79,123.482 401.512,123.482 401.512,126.102 390.689,126.102 390.689,111.858 
					401.372,111.858 				"/>
			</g>
		</g>
		<g opacity="0.7">
			<g>
				<defs>
					<rect id="SVGID_19_" x="410.209" y="111.858" width="12.063" height="14.243"/>
				</defs>
				<clipPath id="SVGID_20_">
					<use xlink:href="#SVGID_19_"  overflow="visible"/>
				</clipPath>
				<polygon clip-path="url(#SVGID_20_)" fill="#FFFFFF" points="422.272,126.102 419.151,126.102 419.151,114.52 413.33,114.52 
					413.33,126.102 410.209,126.102 410.209,111.859 422.272,111.859 				"/>
			</g>
		</g>
		<g opacity="0.7">
			<g>
				<defs>
					<rect id="SVGID_21_" x="425.529" y="111.858" width="10.822" height="14.243"/>
				</defs>
				<clipPath id="SVGID_22_">
					<use xlink:href="#SVGID_21_"  overflow="visible"/>
				</clipPath>
				<polygon clip-path="url(#SVGID_22_)" fill="#FFFFFF" points="436.211,114.419 428.629,114.419 428.629,117.52 435.591,117.52 
					435.591,119.981 428.629,119.981 428.629,123.482 436.351,123.482 436.351,126.102 425.528,126.102 425.528,111.858 
					436.211,111.858 				"/>
			</g>
		</g>
		<g opacity="0.7">
			<g>
				<defs>
					<rect id="SVGID_23_" x="439.009" y="111.858" width="11.363" height="14.243"/>
				</defs>
				<clipPath id="SVGID_24_">
					<use xlink:href="#SVGID_23_"  overflow="visible"/>
				</clipPath>
				<path clip-path="url(#SVGID_24_)" fill="#FFFFFF" d="M445.151,111.859c3.08,0,5.221,1.44,5.221,4.581
					c0,3.101-2.2,4.541-5.062,4.541h-3.2v5.121h-3.101v-14.243H445.151z M442.11,118.52h2.78c1.401,0,2.441-0.46,2.441-2.04
					c0-1.521-1.04-2.061-2.42-2.061h-2.801V118.52z"/>
			</g>
		</g>
		<g opacity="0.7">
			<g>
				<defs>
					<rect id="SVGID_25_" x="452.829" y="111.858" width="10.822" height="14.243"/>
				</defs>
				<clipPath id="SVGID_26_">
					<use xlink:href="#SVGID_25_"  overflow="visible"/>
				</clipPath>
				<polygon clip-path="url(#SVGID_26_)" fill="#FFFFFF" points="463.511,114.419 455.93,114.419 455.93,117.52 462.891,117.52 
					462.891,119.981 455.93,119.981 455.93,123.482 463.651,123.482 463.651,126.102 452.828,126.102 452.828,111.858 
					463.511,111.858 				"/>
			</g>
		</g>
		<path fill="#9AA1A7" d="M473.01,111.858c2.501,0,4.541,1.061,4.541,3.581c0,1.38-0.78,2.42-1.94,2.941c1.48,0.42,2.6,1.5,2.6,3.48
			c0,2.782-2.14,4.241-4.821,4.241h-7.121v-14.243H473.01z M469.31,117.62h2.84c1.14,0,2.36-0.221,2.36-1.661
			c0-1.44-1.16-1.68-2.36-1.68h-2.84V117.62z M469.31,123.621h3.141c1.339,0,2.64-0.26,2.64-1.94c0-1.721-1.4-1.941-2.801-1.941
			h-2.98V123.621z"/>
		<path fill="#9AA1A7" d="M494.292,119.001c0,4.441-2.82,7.441-7.001,7.441c-4.221,0-7.042-2.98-7.042-7.441
			c0-4.521,2.801-7.482,7.061-7.482C491.472,111.519,494.292,114.54,494.292,119.001 M483.41,118.94c0,3.061,1.48,4.9,3.9,4.921
			c2.362,0,3.822-1.881,3.822-4.921c0-3.001-1.481-4.861-3.862-4.861C484.91,114.079,483.41,115.979,483.41,118.94"/>
		<path fill="#9AA1A7" d="M502.15,126.422c-3.861,0-6.142-1.86-6.182-5.081h3.101c0.06,1.92,1.4,2.681,3.081,2.681
			c1.46,0,2.46-0.981,2.46-2.282c0-1.62-1.3-2-2.68-2h-1.081v-2.12c0.24,0.02,0.66,0.02,0.841,0.02c1.72,0,2.58-0.7,2.58-1.941
			c0-1.1-0.86-1.72-2.141-1.72c-1.54,0-2.52,0.74-2.64,2.121h-2.96c0.059-3.181,2.62-4.541,5.621-4.541
			c2.881,0,5.061,1.56,5.061,3.94c0,1.421-0.88,2.581-2.161,2.861c1.54,0.24,2.701,1.541,2.701,3.361
			C507.751,124.482,505.331,126.422,502.15,126.422"/>
		<polygon fill="#9AA1A7" points="517.49,117.48 523.592,126.102 519.671,126.102 515.349,119.701 513.529,121.501 513.529,126.102 
			510.448,126.102 510.448,111.859 513.529,111.859 513.529,117.781 519.131,111.859 523.071,111.859 		"/>
		<polygon fill="#9AA1A7" points="537.411,126.102 534.29,126.102 534.29,116.22 534.229,116.22 528.869,126.102 525.348,126.102 
			525.348,111.859 528.469,111.859 528.469,121.721 528.528,121.721 533.89,111.859 537.411,111.859 		"/>
		<path fill="#FFFFFF" d="M271.63,79.054V35.331c0-0.963,0.317-1.773,0.951-2.431c0.635-0.658,1.409-0.987,2.325-0.987h14.34
			c0.916,0,1.785,0.329,2.608,0.987c0.822,0.658,1.374,1.444,1.656,2.36l10.393,30.089l10.394-30.089
			c0.281-0.916,0.833-1.702,1.655-2.36c0.823-0.658,1.692-0.987,2.608-0.987h14.34c0.916,0,1.685,0.329,2.307,0.987
			c0.622,0.658,0.934,1.468,0.934,2.431v43.723c0,0.964-0.323,1.769-0.969,2.414c-0.646,0.647-1.427,0.969-2.343,0.969h-6.342
			c-0.916,0-1.697-0.322-2.342-0.969c-0.647-0.645-0.97-1.45-0.97-2.414V44.632l-12.437,34.634
			c-0.329,0.869-0.904,1.615-1.726,2.237s-1.692,0.934-2.608,0.934h-5.038c-0.916,0-1.779-0.312-2.59-0.934
			c-0.809-0.622-1.391-1.368-1.743-2.237l-12.402-34.634v34.422c0,0.964-0.323,1.769-0.969,2.414
			c-0.646,0.647-1.427,0.969-2.343,0.969h-6.341c-0.916,0-1.704-0.322-2.362-0.969C271.959,80.823,271.63,80.018,271.63,79.054"/>
		<path fill="#FFFFFF" d="M347.374,78.068c-3.664-3.382-5.496-8.368-5.496-14.956c0-6.588,1.832-11.568,5.496-14.939
			c3.664-3.37,8.932-5.056,15.802-5.056c6.87,0,12.137,1.686,15.801,5.056c3.665,3.371,5.497,8.351,5.497,14.939
			c0,6.588-1.832,11.574-5.497,14.956c-3.664,3.382-8.931,5.074-15.801,5.074C356.306,83.142,351.038,81.45,347.374,78.068
			 M356.288,53.969c-1.457,1.902-2.185,4.944-2.185,9.125c0,4.182,0.728,7.235,2.185,9.16c1.456,1.927,3.752,2.89,6.888,2.89
			c3.135,0,5.437-0.963,6.905-2.89c1.468-1.925,2.202-4.978,2.202-9.16c0-4.181-0.734-7.223-2.202-9.125
			c-1.468-1.902-3.77-2.854-6.905-2.854C360.04,51.115,357.744,52.067,356.288,53.969"/>
		<path fill="#FFFFFF" d="M386.273,43.821h6.765c1.008,0,1.961,0.288,2.853,0.863c0.893,0.576,1.527,1.322,1.903,2.238l9.618,21.95
			l9.584-21.95c0.375-0.916,1.009-1.662,1.902-2.238c0.893-0.575,1.844-0.863,2.854-0.863h6.799c0.823,0,1.363,0.306,1.621,0.916
			c0.118,0.235,0.17,0.535,0.159,0.898c-0.012,0.366-0.123,0.793-0.334,1.287l-15.221,32.414c-0.423,0.916-1.087,1.662-1.991,2.237
			c-0.905,0.576-1.838,0.863-2.801,0.863h-5.179c-0.964,0-1.891-0.287-2.783-0.863c-0.894-0.575-1.551-1.321-1.974-2.237
			l-15.22-32.414c-0.235-0.517-0.352-0.952-0.352-1.304C384.476,44.421,385.075,43.821,386.273,43.821"/>
		<path fill="#FFFFFF" d="M435.75,77.997c-3.618-3.428-5.426-8.367-5.426-14.815c0-6.447,1.819-11.403,5.461-14.868
			c3.64-3.464,8.69-5.196,15.149-5.196c6.46,0,11.498,1.685,15.115,5.055c3.618,3.371,5.426,8.204,5.426,14.498v2.009
			c0,0.634-0.206,1.157-0.616,1.567c-0.411,0.412-0.934,0.617-1.568,0.617H442.76c0.235,2.889,1.063,4.992,2.485,6.306
			c1.421,1.317,3.693,1.974,6.817,1.974s5.261-0.705,6.412-2.114c1.151-1.41,2.572-2.125,4.264-2.15h5.249
			c0.635,0,1.157,0.206,1.568,0.617c0.41,0.412,0.616,0.934,0.616,1.568c0,6.742-6.423,10.099-19.272,10.077
			C444.417,83.142,439.366,81.427,435.75,77.997 M442.69,59.43h16.384c-0.236-5.543-2.954-8.314-8.157-8.314
			S442.972,53.887,442.69,59.43"/>
		<path fill="#44A3CE" d="M477.234,79.054V35.331c0-0.963,0.317-1.773,0.951-2.431c0.635-0.658,1.409-0.987,2.325-0.987h14.34
			c0.916,0,1.785,0.329,2.608,0.987c0.822,0.658,1.374,1.444,1.656,2.36l10.393,30.089l10.394-30.089
			c0.281-0.916,0.833-1.702,1.655-2.36c0.823-0.658,1.692-0.987,2.608-0.987h14.34c0.916,0,1.685,0.329,2.307,0.987
			c0.622,0.658,0.934,1.468,0.934,2.431v43.723c0,0.964-0.323,1.769-0.969,2.414c-0.646,0.647-1.427,0.969-2.343,0.969h-6.342
			c-0.916,0-1.697-0.322-2.342-0.969c-0.647-0.645-0.97-1.45-0.97-2.414V44.632l-12.437,34.634
			c-0.329,0.869-0.904,1.615-1.726,2.237c-0.822,0.622-1.692,0.934-2.608,0.934h-5.038c-0.916,0-1.779-0.312-2.59-0.934
			c-0.809-0.622-1.391-1.368-1.743-2.237l-12.402-34.634v34.422c0,0.964-0.323,1.769-0.969,2.414
			c-0.646,0.647-1.427,0.969-2.343,0.969h-6.341c-0.916,0-1.704-0.322-2.362-0.969C477.563,80.823,477.234,80.018,477.234,79.054"/>
		<path fill="#44A3CE" d="M552.907,77.997c-3.618-3.428-5.426-8.367-5.426-14.815c0-6.447,1.819-11.403,5.461-14.868
			c3.64-3.464,8.69-5.196,15.149-5.196c6.46,0,11.498,1.685,15.115,5.055c3.618,3.371,5.426,8.204,5.426,14.498v2.009
			c0,0.634-0.206,1.157-0.616,1.567c-0.411,0.412-0.934,0.617-1.568,0.617h-26.531c0.235,2.889,1.063,4.992,2.485,6.306
			c1.421,1.317,3.693,1.974,6.817,1.974c3.124,0,5.261-0.705,6.412-2.114c1.151-1.41,2.572-2.125,4.264-2.15h5.249
			c0.635,0,1.157,0.206,1.568,0.617c0.41,0.412,0.616,0.934,0.616,1.568c0,6.742-6.423,10.099-19.272,10.077
			C561.574,83.142,556.523,81.427,552.907,77.997 M559.847,59.43h16.384c-0.236-5.543-2.954-8.314-8.157-8.314
			S560.129,53.887,559.847,59.43"/>
		<path fill="#364350" d="M59.121,37.47h-4.405c-0.972,0-1.765,0.79-1.765,1.762v25.914c0,0.969,0.793,1.761,1.765,1.761h4.405
			c0.97,0,1.762-0.792,1.762-1.761V39.232C60.883,38.26,60.089,37.47,59.121,37.47"/>
		<path fill="#364350" d="M167.637,37.47h-4.405c-0.972,0-1.762,0.79-1.762,1.762v25.914c0,0.969,0.79,1.761,1.762,1.761h4.405
			c0.971,0,1.762-0.792,1.762-1.761V39.232C169.399,38.26,168.608,37.47,167.637,37.47"/>
		<path fill="#364350" d="M157.971,72.868c0-1.782-1.324-3.239-3.042-3.476c0.037-0.359,0.064-0.717,0.064-1.093V11.383
			c0-3.539-1.581-6.408-3.523-6.408c0,0-21.353-4.975-40.166-4.975S70.885,4.975,70.885,4.975c-1.947,0-3.526,2.869-3.526,6.408
			v56.914c0,0.376,0.027,0.734,0.061,1.093c-1.715,0.238-3.039,1.695-3.039,3.477v14.745c-0.754,0.648-1.241,1.594-1.241,2.667
			v16.266c0,1.075,0.487,2.019,1.241,2.671v24.695c0,1.582,1.053,2.904,2.491,3.355v1.249c0,1.949,1.572,3.526,3.523,3.526h5.478
			c1.206,0,2.268-0.607,2.905-1.527c0.636,0.92,1.694,1.527,2.898,1.527h5.479c1.95,0,3.529-1.577,3.529-3.526v-1.077h40.992v1.077
			c0,1.949,1.58,3.526,3.523,3.526h5.478c1.209,0,2.271-0.607,2.905-1.527c0.635,0.92,1.7,1.527,2.903,1.527h5.478
			c1.946,0,3.523-1.577,3.523-3.526v-1.249c1.442-0.451,2.488-1.774,2.488-3.355v-24.694c0.754-0.651,1.245-1.596,1.245-2.67V90.28
			c0-1.074-0.489-2.019-1.245-2.667V72.868H157.971z M111.176,33.169c15.618,0,41.819,1.66,41.819,1.66l-1.602,33.168l-0.884,1.345
			H71.844l-0.885-1.345L69.35,34.829C69.35,34.829,95.558,33.169,111.176,33.169 M133.617,90.641h-22.441H88.733l-6.441-2.097
			l-0.394-2.725h29.278h29.278l-0.388,2.727L133.617,90.641z M139.046,92.82l-0.374,2.719l-6.135,2.103h-21.362h-21.36l-6.139-2.103
			l-0.373-2.719h27.872H139.046z M69.121,132.773c-1.243,0-2.254-1.009-2.254-2.255c0-1.245,1.009-2.253,2.254-2.253
			c1.244,0,2.256,1.008,2.256,2.253C71.377,131.764,70.364,132.773,69.121,132.773 M84.433,123.645c0,1.949-1.576,3.526-3.523,3.526
			l-10.517-1.244c-1.944,0-3.523-1.581-3.523-3.526v-2.743c0-1.949,1.579-3.526,3.523-3.526l10.517,2.485
			c1.958,0.599,3.523,1.58,3.523,3.529V123.645z M134.423,123.523l-5.186,2.098h-18.062H93.12l-5.192-2.098l-0.319-2.718h23.567
			h23.565L134.423,123.523z M136.201,116.53l-5.584,2.098h-19.441H91.737l-5.585-2.098l-0.336-2.725h25.36h25.361L136.201,116.53z
			 M136.745,109.533l-5.703,2.097h-19.867h-19.86l-5.706-2.097l-0.343-2.726h25.909h25.909L136.745,109.533z M131.956,104.635
			h-20.781H90.397l-5.971-2.103l-0.359-2.719h27.109h27.109l-0.361,2.719L131.956,104.635z M141.507,127.171
			c-1.944,0-3.525-1.577-3.525-3.526v-1.499c0-1.949,1.563-2.93,3.525-3.529l10.513-2.485c1.949,0,3.529,1.577,3.529,3.526v2.743
			c0,1.945-1.58,3.526-3.529,3.526L141.507,127.171z M153.303,132.773c-1.249,0-2.258-1.009-2.258-2.255
			c0-1.245,1.009-2.253,2.258-2.253c1.238,0,2.25,1.008,2.25,2.253C155.553,131.764,154.54,132.773,153.303,132.773"/>
		<path fill="#44A3CE" d="M226.743,50.99c0-1.593-1.206-2.895-2.67-2.895h-3.412c-1.252,0-2.306,0.943-2.593,2.206
			c-1.594,0.211-6.036,2.574-7.783,3.572l0.964,0.981c0.419,0.637,0.345,1.293,0.5,1.917c1.148-0.645,4.988-2.903,6.085-3.104
			l-0.649,11.22c0,1.591,1.202,2.895,2.673,2.895h5.012c1.471,0,2.678-1.304,2.678-2.895L226.743,50.99z"/>
		<path fill="#FFFFFF" d="M59.121,37.47h-4.405c-0.972,0-1.765,0.79-1.765,1.762v25.914c0,0.969,0.793,1.761,1.765,1.761h4.405
			c0.97,0,1.762-0.792,1.762-1.761V39.232C60.883,38.26,60.089,37.47,59.121,37.47"/>
		<path fill="#FFFFFF" d="M167.637,37.47h-4.405c-0.972,0-1.762,0.79-1.762,1.762v25.914c0,0.969,0.79,1.761,1.762,1.761h4.405
			c0.971,0,1.762-0.792,1.762-1.761V39.232C169.399,38.26,168.608,37.47,167.637,37.47"/>
		<path fill="#FFFFFF" d="M157.971,72.868c0-1.782-1.324-3.239-3.042-3.476c0.037-0.359,0.064-0.717,0.064-1.093V11.383
			c0-3.539-1.581-6.408-3.523-6.408c0,0-21.353-4.975-40.166-4.975S70.885,4.975,70.885,4.975c-1.947,0-3.526,2.869-3.526,6.408
			v56.914c0,0.376,0.027,0.734,0.061,1.093c-1.715,0.238-3.039,1.695-3.039,3.477v14.745c-0.754,0.648-1.241,1.594-1.241,2.667
			v16.266c0,1.075,0.487,2.019,1.241,2.671v24.695c0,1.582,1.053,2.904,2.491,3.355v1.249c0,1.949,1.572,3.526,3.523,3.526h5.478
			c1.206,0,2.268-0.607,2.905-1.527c0.636,0.92,1.694,1.527,2.898,1.527h5.479c1.95,0,3.529-1.577,3.529-3.526v-1.077h40.992v1.077
			c0,1.949,1.58,3.526,3.523,3.526h5.478c1.209,0,2.271-0.607,2.905-1.527c0.635,0.92,1.7,1.527,2.903,1.527h5.478
			c1.946,0,3.523-1.577,3.523-3.526v-1.249c1.442-0.451,2.488-1.774,2.488-3.355v-24.694c0.754-0.651,1.245-1.596,1.245-2.67V90.28
			c0-1.074-0.489-2.019-1.245-2.667V72.868H157.971z M111.176,33.169c15.618,0,41.819,1.66,41.819,1.66l-1.602,33.168l-0.884,1.345
			H71.844l-0.885-1.345L69.35,34.829C69.35,34.829,95.558,33.169,111.176,33.169 M133.617,90.641h-22.441H88.733l-6.441-2.097
			l-0.394-2.725h29.278h29.278l-0.388,2.727L133.617,90.641z M139.046,92.82l-0.374,2.719l-6.135,2.103h-21.362h-21.36l-6.139-2.103
			l-0.373-2.719h27.872H139.046z M69.121,132.773c-1.243,0-2.254-1.009-2.254-2.255c0-1.245,1.009-2.253,2.254-2.253
			c1.244,0,2.256,1.008,2.256,2.253C71.377,131.764,70.364,132.773,69.121,132.773 M84.433,123.645c0,1.949-1.576,3.526-3.523,3.526
			l-10.517-1.244c-1.944,0-3.523-1.581-3.523-3.526v-2.743c0-1.949,1.579-3.526,3.523-3.526l10.517,2.485
			c1.958,0.599,3.523,1.58,3.523,3.529V123.645z M134.423,123.523l-5.186,2.098h-18.062H93.12l-5.192-2.098l-0.319-2.718h23.567
			h23.565L134.423,123.523z M136.201,116.53l-5.584,2.098h-19.441H91.737l-5.585-2.098l-0.336-2.725h25.36h25.361L136.201,116.53z
			 M136.745,109.533l-5.703,2.097h-19.867h-19.86l-5.706-2.097l-0.343-2.726h25.909h25.909L136.745,109.533z M131.956,104.635
			h-20.781H90.397l-5.971-2.103l-0.359-2.719h27.109h27.109l-0.361,2.719L131.956,104.635z M141.507,127.171
			c-1.944,0-3.525-1.577-3.525-3.526v-1.499c0-1.949,1.563-2.93,3.525-3.529l10.513-2.485c1.949,0,3.529,1.577,3.529,3.526v2.743
			c0,1.945-1.58,3.526-3.529,3.526L141.507,127.171z M153.303,132.773c-1.249,0-2.258-1.009-2.258-2.255
			c0-1.245,1.009-2.253,2.258-2.253c1.238,0,2.25,1.008,2.25,2.253C155.553,131.764,154.54,132.773,153.303,132.773"/>
		<path fill="#44A3CE" d="M56.231,74.535c-11.227,0-22.454,0.008-33.68-0.007c-2.503-0.004-4.401-1.496-4.869-3.779
			c-0.117-0.568-0.11-1.167-0.111-1.752c-0.006-8.108-0.008-16.216,0-24.325c0.003-3.559,1.866-5.414,5.436-5.414
			c7.981-0.001,24.788,0,27.169,0V36.59c0-1.169,1.148-2.12,2.554-2.12h7.377c0.456,0,0.879,0.108,1.251,0.285v-5.536
			c-8.39,0.003-16.781,0.007-25.172,0.03c-0.542,0.001-1.213,0.288-1.604,0.668c-2.815,2.736-10.536,5.957-12.137,5.914
			c-4.064-0.108-7.087,2.266-8.115,6.199c-0.163,0.621-0.413,0.828-1.037,0.818c-1.981-0.032-3.962-0.02-5.943-0.01
			c-2.426,0.012-3.804,1.403-3.818,3.841c-0.007,1.051-0.001,2.101-0.001,3.133c-2.586,0.177-3.514,0.901-3.52,2.731
			c-0.018,5.247-0.013,10.493,0.003,15.74c0.005,1.637,0.936,2.575,2.571,2.679c0.256,0.016,0.512,0.029,0.947,0.053
			c0,1.178-0.016,2.272,0.003,3.365c0.037,2.122,1.48,3.579,3.609,3.621c1.503,0.029,3.008,0.007,4.512,0.007
			c0.79,0,1.579,0,2.441,0c0,2.199,0.035,4.214-0.024,6.226c-0.015,0.497-0.23,1.064-0.532,1.463
			c-1.724,2.281-2.929,4.783-2.944,7.669c-0.049,9.686-0.022,19.371-0.016,29.057c0.002,2.067,0.938,3.598,2.813,4.467
			c0.568,0.262,0.726,0.565,0.717,1.151c-0.031,2.09-0.019,4.182-0.009,6.273c0.01,2.15,1.349,3.554,3.47,3.569
			c3.559,0.026,7.118,0.027,10.677,0c1.985-0.015,3.378-1.434,3.401-3.422c0.024-2.017,0.005-4.035,0.005-6.053v-0.997H58.38
			v-18.196c-0.754-0.651-1.241-1.596-1.241-2.671v-0.374h-4.271V92.139h4.271v-1.861c0-0.601-0.223-3.438,1.241-3.438V74.542
			c-0.716,0-1.432,0-2.149,0V74.535z M14.02,74.461H7.07v-3.44c2.826-0.182,3.457-0.874,3.451-3.618
			c-0.01-4.623-0.002-9.246-0.004-13.869c0-2.904-0.495-3.452-3.437-3.73V46.38h6.94V74.461z M42.276,92.164h6.976v13.994h-6.976
			V92.164z M38.717,92.191v14.03c-1.425,0-4.705-0.353-4.811-0.586c-1.953-4.3-3.572-8.715-4.603-13.444H38.717z M29.201,109.713
			c1.058,0.003,1.831,0.58,2.316,1.442c1.22,2.168,2.385,4.367,3.541,6.57c0.404,0.768,0.152,1.518-0.54,1.913
			c-0.637,0.366-1.414,0.634-2.142,0.666c-2.011,0.088-4.029,0.031-6.044,0.031c0-0.004,0-0.007,0-0.011
			c-2.052,0-4.104,0.015-6.155-0.005c-1.57-0.015-2.564-0.956-2.598-2.509c-0.041-1.904-0.043-3.81,0-5.715
			c0.031-1.354,1.037-2.359,2.39-2.374C23.046,109.687,26.124,109.703,29.201,109.713 M28.188,100.992
			c-0.023,2.913-2.443,5.276-5.376,5.251c-2.926-0.026-5.266-2.429-5.237-5.379c0.03-2.996,2.414-5.277,5.473-5.235
			C25.896,95.668,28.211,98.084,28.188,100.992"/>
		<path fill="#44A3CE" d="M216.162,119.684V73.69l-4.699-34.235c0,0-1.027-9.646-11.316-10.771
			c-11.034-1.206-21.694-1.476-30.969-1.467v-0.001c-0.088,0-0.179,0.001-0.269,0.001c-0.084,0-0.176-0.001-0.264-0.001v0.001
			c-2.312-0.002-4.709,0.019-7.175,0.068v4.049c2.308-0.046,4.785-0.074,7.441-0.077c19.77,0.02,29.966,1.424,29.966,1.424
			c1.459,0.199,3.028,1.602,3.481,3.116l0.425,1.392c0.452,1.514-0.375,2.753-1.846,2.753h-25.061v3.014h26.221
			c4.03,0,5.08,2.783,5.568,7.002l3.56,34.739c0.334,3.33-0.377,6.635-3.755,6.635h-38.504h-0.107h-3.163v11.621
			c0,1.075-0.491,2.02-1.245,2.671v6.404h14.797c1.1,0,2,0.9,2,2v2.75c0,1.1-0.9,2-2,2h-14.797v11.041
			c1.427,0.031,2.834,0.053,4.195,0.058v0.007c0.088,0,0.181-0.003,0.265-0.003c0.09,0,0.18,0.003,0.269,0.003v-0.007
			c8.814-0.032,19.046-0.576,30.075-2.112c0.469-0.066,0.92-0.13,1.357-0.196v2.283c0,1.678,0.317,4.308,1.511,4.832
			c1.964,0.862,9.191,1.008,10.813-0.062c1.005-0.663,1.255-3.07,1.255-4.77v-2.38l2.995-0.038v-4.75L216.162,119.684z
			 M211.226,109.944h-0.001c0,0-0.13,0.977-1.296,1.658c-1.164,0.676-3.886,2.258-3.886,2.258s-1.816,0.755-3.628,0.755h-10.883
			c0,0-6.994-0.151,4.924-8.736c11.921-8.587,14.77-5.424,14.77-2.562V109.944z"/>
	</g>
</g>
</svg>
