<?xml version="1.0" encoding="utf-8"?>
<!-- Generator: Adobe Illustrator 17.0.0, SVG Export Plug-In . SVG Version: 6.00 Build 0)  -->
<!DOCTYPE svg PUBLIC "-//W3C//DTD SVG 1.1//EN" "http://www.w3.org/Graphics/SVG/1.1/DTD/svg11.dtd">
<svg version="1.1" id="Layer_1" xmlns="http://www.w3.org/2000/svg" xmlns:xlink="http://www.w3.org/1999/xlink" x="0px" y="0px"
	 width="150px" height="105.627px" viewBox="0 0 150 105.627" enable-background="new 0 0 150 105.627" xml:space="preserve">
<g>
	<g>
		<g>
			<path fill="#CFB892" d="M0,103.693V83.004c0-0.456,0.15-0.839,0.45-1.151c0.3-0.311,0.667-0.467,1.1-0.467h6.785
				c0.433,0,0.845,0.156,1.234,0.467c0.389,0.311,0.65,0.683,0.784,1.117l4.918,14.238l4.918-14.238
				c0.133-0.433,0.394-0.805,0.783-1.117c0.389-0.311,0.8-0.467,1.234-0.467h6.785c0.433,0,0.798,0.156,1.092,0.467
				c0.294,0.311,0.442,0.695,0.442,1.151v20.689c0,0.456-0.153,0.837-0.458,1.142c-0.306,0.306-0.675,0.458-1.109,0.458h-3.001
				c-0.433,0-0.803-0.152-1.109-0.458c-0.306-0.305-0.459-0.686-0.459-1.142V87.405l-5.885,16.388
				c-0.156,0.411-0.428,0.764-0.817,1.059c-0.389,0.294-0.8,0.442-1.234,0.442h-2.384c-0.433,0-0.842-0.147-1.225-0.442
				c-0.383-0.294-0.658-0.647-0.825-1.059L6.152,87.405v16.288c0,0.456-0.153,0.837-0.458,1.142
				c-0.306,0.306-0.675,0.458-1.109,0.458H1.584c-0.433,0-0.806-0.152-1.117-0.458C0.156,104.529,0,104.149,0,103.693z"/>
			<path fill="#CFB892" d="M35.84,103.226c-1.734-1.6-2.601-3.959-2.601-7.077c0-3.117,0.867-5.473,2.601-7.069
				c1.734-1.595,4.226-2.392,7.477-2.392c3.251,0,5.743,0.798,7.477,2.392c1.734,1.595,2.601,3.951,2.601,7.069
				c0,3.118-0.867,5.477-2.601,7.077c-1.734,1.601-4.226,2.401-7.477,2.401C40.067,105.627,37.574,104.827,35.84,103.226z
				 M40.058,91.823c-0.689,0.9-1.034,2.34-1.034,4.318c0,1.979,0.344,3.424,1.034,4.334c0.689,0.912,1.775,1.367,3.259,1.367
				s2.573-0.456,3.267-1.367c0.695-0.911,1.042-2.356,1.042-4.334c0-1.978-0.347-3.418-1.042-4.318s-1.784-1.35-3.267-1.35
				S40.747,90.923,40.058,91.823z"/>
			<path fill="#CFB892" d="M54.247,87.021h3.201c0.477,0,0.928,0.136,1.35,0.408c0.422,0.273,0.722,0.625,0.9,1.059l4.551,10.386
				l4.535-10.386c0.177-0.433,0.478-0.786,0.9-1.059c0.422-0.272,0.872-0.408,1.35-0.408h3.218c0.389,0,0.645,0.145,0.767,0.433
				c0.055,0.111,0.08,0.253,0.075,0.425c-0.006,0.173-0.058,0.375-0.158,0.609l-7.202,15.338c-0.2,0.433-0.514,0.786-0.942,1.059
				c-0.428,0.273-0.87,0.408-1.325,0.408h-2.45c-0.456,0-0.895-0.136-1.317-0.408c-0.423-0.272-0.734-0.625-0.934-1.059
				l-7.202-15.338c-0.111-0.244-0.166-0.45-0.166-0.617C53.397,87.305,53.68,87.021,54.247,87.021z"/>
			<path fill="#CFB892" d="M77.659,103.193c-1.712-1.622-2.567-3.959-2.567-7.01c0-3.051,0.861-5.396,2.584-7.035
				c1.723-1.639,4.112-2.459,7.168-2.459c3.057,0,5.441,0.798,7.152,2.392c1.712,1.595,2.567,3.882,2.567,6.86v0.951
				c0,0.3-0.098,0.548-0.292,0.742c-0.195,0.195-0.442,0.292-0.742,0.292H80.976c0.111,1.367,0.503,2.362,1.176,2.984
				c0.672,0.623,1.748,0.934,3.226,0.934c1.478,0,2.489-0.334,3.034-1c0.544-0.667,1.217-1.006,2.017-1.017h2.484
				c0.3,0,0.548,0.097,0.742,0.292c0.194,0.195,0.292,0.442,0.292,0.742c0,3.19-3.04,4.779-9.119,4.768
				C81.76,105.627,79.37,104.815,77.659,103.193z M80.943,94.407h7.753c-0.111-2.623-1.398-3.934-3.86-3.934
				C82.374,90.473,81.076,91.784,80.943,94.407z"/>
			<path fill="#CFB892" d="M97.288,103.693V83.004c0-0.456,0.15-0.839,0.45-1.151c0.3-0.311,0.667-0.467,1.1-0.467h6.785
				c0.433,0,0.845,0.156,1.234,0.467c0.389,0.311,0.65,0.683,0.784,1.117l4.918,14.238l4.918-14.238
				c0.133-0.433,0.394-0.805,0.783-1.117c0.389-0.311,0.8-0.467,1.234-0.467h6.785c0.433,0,0.798,0.156,1.092,0.467
				c0.294,0.311,0.442,0.695,0.442,1.151v20.689c0,0.456-0.153,0.837-0.458,1.142c-0.306,0.306-0.675,0.458-1.109,0.458h-3.001
				c-0.433,0-0.803-0.152-1.109-0.458c-0.306-0.305-0.459-0.686-0.459-1.142V87.405l-5.885,16.388
				c-0.156,0.411-0.428,0.764-0.817,1.059c-0.389,0.294-0.8,0.442-1.234,0.442h-2.384c-0.433,0-0.842-0.147-1.225-0.442
				c-0.383-0.294-0.658-0.647-0.825-1.059l-5.869-16.388v16.288c0,0.456-0.153,0.837-0.458,1.142
				c-0.306,0.306-0.675,0.458-1.109,0.458h-3.001c-0.433,0-0.806-0.152-1.117-0.458C97.444,104.529,97.288,104.149,97.288,103.693z"
				/>
			<path fill="#CFB892" d="M133.095,103.193c-1.712-1.622-2.567-3.959-2.567-7.01c0-3.051,0.861-5.396,2.584-7.035
				c1.723-1.639,4.112-2.459,7.168-2.459c3.057,0,5.441,0.798,7.152,2.392c1.712,1.595,2.567,3.882,2.567,6.86v0.951
				c0,0.3-0.098,0.548-0.292,0.742c-0.195,0.195-0.442,0.292-0.742,0.292h-12.554c0.111,1.367,0.503,2.362,1.176,2.984
				c0.672,0.623,1.748,0.934,3.226,0.934c1.478,0,2.489-0.334,3.034-1c0.544-0.667,1.217-1.006,2.017-1.017h2.484
				c0.3,0,0.548,0.097,0.742,0.292c0.194,0.195,0.292,0.442,0.292,0.742c0,3.19-3.04,4.779-9.119,4.768
				C137.196,105.627,134.806,104.815,133.095,103.193z M136.379,94.407h7.753c-0.111-2.623-1.398-3.934-3.86-3.934
				C137.81,90.473,136.513,91.784,136.379,94.407z"/>
		</g>
	</g>
	<g>
		<g>
			<g>
				<g>
					<path fill="#CFB892" d="M48.455,17.73h-2.085c-0.46,0-0.835,0.374-0.835,0.834v12.262c0,0.459,0.375,0.834,0.835,0.834h2.085
						c0.459,0,0.834-0.375,0.834-0.834V18.564C49.289,18.104,48.913,17.73,48.455,17.73z"/>
					<path fill="#CFB892" d="M99.803,17.73h-2.085c-0.46,0-0.834,0.374-0.834,0.834v12.262c0,0.459,0.374,0.834,0.834,0.834h2.085
						c0.46,0,0.834-0.375,0.834-0.834V18.564C100.636,18.104,100.263,17.73,99.803,17.73z"/>
					<path fill="#CFB892" d="M95.229,34.48c0-0.843-0.627-1.533-1.439-1.645c0.018-0.17,0.03-0.339,0.03-0.517V5.386
						c0-1.674-0.748-3.032-1.667-3.032c0,0-10.104-2.354-19.006-2.354S54.022,2.354,54.022,2.354c-0.921,0-1.669,1.357-1.669,3.032
						v26.931c0,0.178,0.013,0.347,0.029,0.517c-0.811,0.112-1.438,0.802-1.438,1.645v6.977c-0.357,0.307-0.587,0.754-0.587,1.262
						v7.697c0,0.508,0.231,0.955,0.587,1.264v11.686c0,0.749,0.498,1.374,1.179,1.587v0.591c0,0.922,0.744,1.669,1.667,1.669h2.592
						c0.57,0,1.073-0.287,1.374-0.723c0.301,0.435,0.802,0.723,1.371,0.723h2.592c0.923,0,1.67-0.746,1.67-1.669v-0.51h19.397v0.51
						c0,0.922,0.748,1.669,1.667,1.669h2.592c0.572,0,1.074-0.287,1.374-0.723c0.301,0.435,0.805,0.723,1.374,0.723h2.592
						c0.921,0,1.667-0.746,1.667-1.669v-0.591c0.682-0.214,1.177-0.839,1.177-1.587V51.68c0.357-0.308,0.589-0.755,0.589-1.264
						v-7.697c0-0.508-0.231-0.955-0.589-1.262V34.48H95.229z M73.086,15.695c7.39,0,19.788,0.785,19.788,0.785l-0.758,15.694
						l-0.418,0.636H54.475l-0.419-0.636l-0.761-15.694C53.295,16.481,65.696,15.695,73.086,15.695z M83.705,42.89H73.086H62.467
						l-3.048-0.992l-0.186-1.289h13.854H86.94l-0.183,1.29L83.705,42.89z M86.274,43.921l-0.177,1.287l-2.903,0.995H73.086H62.979
						l-2.905-0.995l-0.177-1.287h13.189H86.274z M53.187,62.826c-0.588,0-1.066-0.477-1.066-1.067c0-0.589,0.477-1.066,1.066-1.066
						s1.068,0.477,1.068,1.066C54.254,62.348,53.775,62.826,53.187,62.826z M60.432,58.507c0,0.922-0.746,1.669-1.667,1.669
						l-4.976-0.589c-0.92,0-1.667-0.748-1.667-1.669V56.62c0-0.922,0.747-1.669,1.667-1.669l4.976,1.176
						c0.927,0.284,1.667,0.748,1.667,1.67V58.507z M84.087,58.449l-2.454,0.992h-8.547h-8.544l-2.457-0.992l-0.151-1.286h11.151
						h11.151L84.087,58.449z M84.928,55.14l-2.642,0.992h-9.199h-9.198l-2.642-0.992l-0.159-1.289h12h12L84.928,55.14z
						 M85.186,51.829l-2.699,0.992h-9.401h-9.397l-2.7-0.992l-0.163-1.289h12.26h12.26L85.186,51.829z M82.92,49.511h-9.833h-9.832
						l-2.825-0.995l-0.17-1.286h12.827h12.827l-0.171,1.286L82.92,49.511z M87.439,60.175c-0.92,0-1.668-0.746-1.668-1.669v-0.709
						c0-0.922,0.74-1.386,1.668-1.67l4.975-1.176c0.922,0,1.67,0.746,1.67,1.669v1.298c0,0.921-0.748,1.669-1.67,1.669
						L87.439,60.175z M93.02,62.826c-0.591,0-1.069-0.477-1.069-1.067c0-0.589,0.477-1.066,1.069-1.066
						c0.586,0,1.065,0.477,1.065,1.066C94.085,62.348,93.606,62.826,93.02,62.826z"/>
				</g>
			</g>
			<path fill="#CFB892" d="M127.771,24.128c0-0.754-0.57-1.37-1.264-1.37h-1.614c-0.592,0-1.091,0.446-1.227,1.044
				c-0.754,0.1-2.856,1.218-3.683,1.69l0.456,0.464c0.199,0.301,0.163,0.612,0.237,0.907c0.544-0.305,2.36-1.373,2.879-1.469
				l-0.307,5.309c0,0.753,0.569,1.37,1.265,1.37h2.371c0.696,0,1.267-0.617,1.267-1.37L127.771,24.128z"/>
			<g>
				<g>
					<path fill="#CFB892" d="M48.455,17.73h-2.085c-0.46,0-0.835,0.374-0.835,0.834v12.262c0,0.459,0.375,0.834,0.835,0.834h2.085
						c0.459,0,0.834-0.375,0.834-0.834V18.564C49.289,18.104,48.913,17.73,48.455,17.73z"/>
					<path fill="#CFB892" d="M99.803,17.73h-2.085c-0.46,0-0.834,0.374-0.834,0.834v12.262c0,0.459,0.374,0.834,0.834,0.834h2.085
						c0.46,0,0.834-0.375,0.834-0.834V18.564C100.636,18.104,100.263,17.73,99.803,17.73z"/>
					<path fill="#CFB892" d="M95.229,34.48c0-0.843-0.627-1.533-1.439-1.645c0.018-0.17,0.03-0.339,0.03-0.517V5.386
						c0-1.674-0.748-3.032-1.667-3.032c0,0-10.104-2.354-19.006-2.354S54.022,2.354,54.022,2.354c-0.921,0-1.669,1.357-1.669,3.032
						v26.931c0,0.178,0.013,0.347,0.029,0.517c-0.811,0.112-1.438,0.802-1.438,1.645v6.977c-0.357,0.307-0.587,0.754-0.587,1.262
						v7.697c0,0.508,0.231,0.955,0.587,1.264v11.686c0,0.749,0.498,1.374,1.179,1.587v0.591c0,0.922,0.744,1.669,1.667,1.669h2.592
						c0.57,0,1.073-0.287,1.374-0.723c0.301,0.435,0.802,0.723,1.371,0.723h2.592c0.923,0,1.67-0.746,1.67-1.669v-0.51h19.397v0.51
						c0,0.922,0.748,1.669,1.667,1.669h2.592c0.572,0,1.074-0.287,1.374-0.723c0.301,0.435,0.805,0.723,1.374,0.723h2.592
						c0.921,0,1.667-0.746,1.667-1.669v-0.591c0.682-0.214,1.177-0.839,1.177-1.587V51.68c0.357-0.308,0.589-0.755,0.589-1.264
						v-7.697c0-0.508-0.231-0.955-0.589-1.262V34.48H95.229z M73.086,15.695c7.39,0,19.788,0.785,19.788,0.785l-0.758,15.694
						l-0.418,0.636H54.475l-0.419-0.636l-0.761-15.694C53.295,16.481,65.696,15.695,73.086,15.695z M83.705,42.89H73.086H62.467
						l-3.048-0.992l-0.186-1.289h13.854H86.94l-0.183,1.29L83.705,42.89z M86.274,43.921l-0.177,1.287l-2.903,0.995H73.086H62.979
						l-2.905-0.995l-0.177-1.287h13.189H86.274z M53.187,62.826c-0.588,0-1.066-0.477-1.066-1.067c0-0.589,0.477-1.066,1.066-1.066
						s1.068,0.477,1.068,1.066C54.254,62.348,53.775,62.826,53.187,62.826z M60.432,58.507c0,0.922-0.746,1.669-1.667,1.669
						l-4.976-0.589c-0.92,0-1.667-0.748-1.667-1.669V56.62c0-0.922,0.747-1.669,1.667-1.669l4.976,1.176
						c0.927,0.284,1.667,0.748,1.667,1.67V58.507z M84.087,58.449l-2.454,0.992h-8.547h-8.544l-2.457-0.992l-0.151-1.286h11.151
						h11.151L84.087,58.449z M84.928,55.14l-2.642,0.992h-9.199h-9.198l-2.642-0.992l-0.159-1.289h12h12L84.928,55.14z
						 M85.186,51.829l-2.699,0.992h-9.401h-9.397l-2.7-0.992l-0.163-1.289h12.26h12.26L85.186,51.829z M82.92,49.511h-9.833h-9.832
						l-2.825-0.995l-0.17-1.286h12.827h12.827l-0.171,1.286L82.92,49.511z M87.439,60.175c-0.92,0-1.668-0.746-1.668-1.669v-0.709
						c0-0.922,0.74-1.386,1.668-1.67l4.975-1.176c0.922,0,1.67,0.746,1.67,1.669v1.298c0,0.921-0.748,1.669-1.67,1.669
						L87.439,60.175z M93.02,62.826c-0.591,0-1.069-0.477-1.069-1.067c0-0.589,0.477-1.066,1.069-1.066
						c0.586,0,1.065,0.477,1.065,1.066C94.085,62.348,93.606,62.826,93.02,62.826z"/>
				</g>
			</g>
		</g>
		<path fill="#CFB892" d="M47.088,35.269c-5.312,0-10.625,0.004-15.937-0.003c-1.184-0.002-2.082-0.708-2.304-1.788
			c-0.055-0.269-0.052-0.552-0.052-0.829c-0.003-3.837-0.004-7.673,0-11.51c0.002-1.684,0.883-2.562,2.572-2.562
			c3.777-0.001,11.729,0,12.856,0v-1.262c0-0.553,0.543-1.003,1.209-1.003h3.491c0.216,0,0.416,0.052,0.592,0.135v-2.62
			c-3.97,0.002-7.941,0.004-11.911,0.014c-0.256,0.001-0.574,0.137-0.759,0.316c-1.332,1.294-4.985,2.819-5.743,2.798
			c-1.923-0.051-3.353,1.072-3.84,2.933c-0.077,0.294-0.195,0.392-0.491,0.387c-0.937-0.015-1.875-0.009-2.812-0.005
			c-1.148,0.006-1.8,0.664-1.807,1.818c-0.003,0.497,0,0.994,0,1.482c-1.224,0.084-1.663,0.426-1.666,1.292
			c-0.008,2.483-0.006,4.965,0.002,7.448c0.002,0.775,0.443,1.218,1.217,1.268c0.121,0.008,0.242,0.014,0.448,0.025
			c0,0.557-0.007,1.075,0.002,1.592c0.017,1.004,0.7,1.693,1.707,1.713c0.712,0.014,1.423,0.003,2.135,0.003
			c0.374,0,0.747,0,1.155,0c0,1.04,0.016,1.994-0.012,2.946c-0.007,0.235-0.109,0.503-0.252,0.692
			c-0.816,1.079-1.386,2.263-1.393,3.629c-0.023,4.583-0.011,9.166-0.008,13.749c0.001,0.978,0.444,1.702,1.331,2.114
			c0.269,0.124,0.343,0.268,0.339,0.545c-0.015,0.989-0.009,1.979-0.005,2.969c0.005,1.017,0.638,1.681,1.642,1.689
			c1.684,0.012,3.368,0.013,5.052,0c0.939-0.007,1.599-0.678,1.61-1.619c0.011-0.955,0.002-1.91,0.002-2.864
			c0-0.164,0-0.328,0-0.472c4.237,0,8.447,0,12.646,0v-8.61c-0.357-0.308-0.587-0.755-0.587-1.264v-0.177c-0.666,0-1.336,0-2.021,0
			c0-2.195,0-4.389,0-6.639c0.684,0,1.352,0,2.021,0v-0.881c0-0.285-0.105-1.627,0.587-1.627v-5.819c-0.339,0-0.678,0-1.017,0
			C47.088,35.271,47.088,35.27,47.088,35.269z M27.114,35.234c-1.089,0-2.171,0-3.288,0c0-0.535,0-1.063,0-1.628
			c1.337-0.086,1.636-0.414,1.633-1.712c-0.005-2.188-0.001-4.375-0.002-6.563c0-1.374-0.234-1.633-1.626-1.765
			c0-0.524,0-1.053,0-1.62c1.08,0,2.163,0,3.284,0C27.114,26.364,27.114,30.78,27.114,35.234z M40.485,43.611
			c1.101,0,2.183,0,3.301,0c0,2.198,0,4.389,0,6.622c-1.073,0-2.154,0-3.301,0C40.485,48.025,40.485,45.834,40.485,43.611z
			 M38.801,43.623c0,2.204,0,4.382,0,6.639c-0.674,0-2.226-0.167-2.276-0.278c-0.924-2.034-1.69-4.124-2.178-6.362
			C35.831,43.623,37.287,43.623,38.801,43.623z M34.298,51.914c0.5,0.002,0.866,0.274,1.096,0.682
			c0.577,1.026,1.128,2.066,1.676,3.109c0.191,0.364,0.072,0.718-0.256,0.906c-0.302,0.173-0.669,0.3-1.014,0.315
			c-0.952,0.042-1.906,0.014-2.86,0.014c0-0.002,0-0.003,0-0.005c-0.971,0-1.942,0.007-2.912-0.002
			c-0.743-0.007-1.213-0.452-1.229-1.187c-0.019-0.901-0.021-1.803,0-2.704c0.015-0.641,0.491-1.117,1.131-1.124
			C31.385,51.902,32.842,51.91,34.298,51.914z M33.819,47.788c-0.011,1.378-1.156,2.496-2.544,2.484
			c-1.385-0.012-2.492-1.149-2.478-2.545c0.014-1.418,1.142-2.497,2.59-2.477C32.734,45.269,33.829,46.412,33.819,47.788z"/>
		<path fill="#CFB892" d="M122.764,56.633V34.869l-2.223-16.2c0,0-0.486-4.564-5.354-5.097c-5.221-0.571-10.265-0.698-14.654-0.694
			v-0.001c-0.042,0-0.085,0.001-0.127,0.001c-0.04,0-0.083-0.001-0.125-0.001v0.001c-1.094-0.001-2.228,0.009-3.395,0.032v1.916
			c1.092-0.022,2.264-0.035,3.521-0.036c9.355,0.009,14.179,0.674,14.179,0.674c0.691,0.094,1.433,0.758,1.647,1.475l0.201,0.659
			c0.214,0.716-0.177,1.303-0.873,1.303h-11.859v1.426h12.407c1.907,0,2.404,1.317,2.635,3.313l1.684,16.438
			c0.158,1.576-0.178,3.14-1.777,3.14h-18.22h-0.05h-1.497v5.499c0,0.508-0.232,0.955-0.589,1.264v3.03h7.002
			c0.521,0,0.946,0.426,0.946,0.946v1.301c0,0.52-0.426,0.946-0.946,0.946h-7.002v5.224c0.675,0.015,1.341,0.025,1.985,0.028v0.003
			c0.041,0,0.085-0.001,0.125-0.001c0.043,0,0.085,0.001,0.127,0.001v-0.003c4.171-0.015,9.012-0.273,14.231-0.999
			c0.222-0.031,0.435-0.062,0.642-0.093v1.081c0,0.794,0.15,2.038,0.715,2.286c0.929,0.408,4.349,0.477,5.116-0.03
			c0.476-0.314,0.594-1.453,0.594-2.257v-1.126l1.417-0.018v-2.248L122.764,56.633z M120.429,52.024L120.429,52.024
			c0,0-0.062,0.462-0.614,0.784c-0.551,0.32-1.839,1.069-1.839,1.069s-0.859,0.357-1.717,0.357c-0.858,0-5.149,0-5.149,0
			s-3.31-0.072,2.33-4.134c5.64-4.063,6.989-2.566,6.989-1.212V52.024z"/>
	</g>
</g>
</svg>
